<?xml version="1.0" encoding="UTF-8"?><svg id="Layer_1" xmlns="http://www.w3.org/2000/svg" viewBox="0 0 213.2 127"><defs><style>.cls-1{font-family:ArialMT, Arial;font-size:5.3px;}.cls-2{letter-spacing:0em;}.cls-3{stroke:#d9d9d9;stroke-width:.2px;}.cls-3,.cls-4{fill:none;stroke-linejoin:round;}.cls-5{fill:#e7606a;}.cls-4{stroke:#1d1d1b;stroke-width:.4px;}</style></defs><line class="cls-3" x1="19.6" y1="84.9" x2="206.4" y2="84.9"/><line class="cls-3" x1="19.6" y1="69.5" x2="206.4" y2="69.5"/><line class="cls-3" x1="19.6" y1="53.7" x2="206.4" y2="53.7"/><line class="cls-3" x1="19.6" y1="37.8" x2="206.4" y2="37.8"/><line class="cls-3" x1="19.6" y1="22" x2="206.4" y2="22"/><path class="cls-5" d="m22.1,94.9c0-.8.6-1.4,1.3-1.4s1.3.6,1.3,1.4v4.7c0,.8-.6,1.4-1.3,1.4s-1.3-.6-1.3-1.4v-4.7Z"/><path class="cls-5" d="m68.9,94.9c0-.8.6-1.4,1.3-1.4s1.3.6,1.3,1.4v4.7c0,.8-.6,1.4-1.3,1.4s-1.3-.6-1.3-1.4v-4.7Z"/><path class="cls-5" d="m76.6,80c0-.8.6-1.4,1.3-1.4s1.3.6,1.3,1.4v19.6c0,.8-.6,1.4-1.3,1.4s-1.3-.6-1.3-1.4v-19.6Z"/><path class="cls-5" d="m84.3,72.9c0-.8.6-1.4,1.3-1.4s1.3.6,1.3,1.4v26.7c0,.8-.6,1.4-1.3,1.4s-1.3-.6-1.3-1.4v-26.7Z"/><path class="cls-5" d="m92.3,58c0-.8.6-1.4,1.3-1.4s1.3.6,1.3,1.4v41.6c0,.8-.6,1.4-1.3,1.4s-1.3-.6-1.3-1.4v-41.6Z"/><path class="cls-5" d="m107.7,80c0-.8.6-1.4,1.3-1.4s1.3.6,1.3,1.4v19.6c0,.8-.6,1.4-1.3,1.4s-1.3-.6-1.3-1.4v-19.6Z"/><path class="cls-5" d="m115.4,87.5c0-.8.6-1.4,1.3-1.4s1.3.6,1.3,1.4v12.1c0,.8-.6,1.4-1.3,1.4s-1.3-.6-1.3-1.4v-12.1Z"/><path class="cls-5" d="m123.4,58c0-.8.6-1.4,1.3-1.4s1.3.6,1.3,1.4v41.6c0,.8-.6,1.4-1.3,1.4s-1.3-.6-1.3-1.4v-41.6Z"/><path class="cls-5" d="m131.1,65.4c0-.8.6-1.4,1.3-1.4s1.3.6,1.3,1.4v34.2c0,.8-.6,1.4-1.3,1.4s-1.3-.6-1.3-1.4v-34.2Z"/><path class="cls-5" d="m138.8,35.5c0-.8.6-1.4,1.3-1.4s1.3.6,1.3,1.4v64.1c0,.8-.6,1.4-1.3,1.4s-1.3-.6-1.3-1.4V35.5Z"/><path class="cls-5" d="m169.9,65.4c0-.8.6-1.4,1.3-1.4s1.3.6,1.3,1.4v34.2c0,.8-.6,1.4-1.3,1.4s-1.3-.6-1.3-1.4v-34.2Z"/><path class="cls-5" d="m177.9,87.5c0-.8.6-1.4,1.3-1.4s1.3.6,1.3,1.4v12.1c0,.8-.6,1.4-1.3,1.4s-1.3-.6-1.3-1.4v-12.1Z"/><path class="cls-5" d="m185.6,94.9c0-.8.6-1.4,1.3-1.4s1.3.6,1.3,1.4v4.7c0,.8-.6,1.4-1.3,1.4s-1.3-.6-1.3-1.4v-4.7Z"/><g><text class="cls-1" transform="translate(24.8 122.5) rotate(-90)"><tspan x="0" y="0">12 mn</tspan></text><text class="cls-1" transform="translate(48.4 122.5) rotate(-90)"><tspan x="0" y="0">3am</tspan></text><text class="cls-1" transform="translate(71.6 122.5) rotate(-90)"><tspan x="0" y="0">6am</tspan></text><text class="cls-1" transform="translate(95 122.5) rotate(-90)"><tspan x="0" y="0">9am</tspan></text><text class="cls-1" transform="translate(118.2 122.5) rotate(-90)"><tspan class="cls-2" x="0" y="0">12</tspan><tspan x="5.8" y="0" xml:space="preserve"> noon</tspan></text><text class="cls-1" transform="translate(141.6 122.5) rotate(-90)"><tspan x="0" y="0">3pm</tspan></text><text class="cls-1" transform="translate(165.3 122.5) rotate(-90)"><tspan x="0" y="0">6pm</tspan></text><text class="cls-1" transform="translate(188.3 122.5) rotate(-90)"><tspan x="0" y="0">9pm</tspan></text></g><line class="cls-4" x1="19.6" y1="100.8" x2="206.4" y2="100.8"/></svg>