<?xml version="1.0" encoding="UTF-8"?><svg id="Layer_1" xmlns="http://www.w3.org/2000/svg" viewBox="0 0 212.8 127"><defs><style>.cls-1{stroke:#d9d9d9;stroke-width:.2px;}.cls-1,.cls-2{fill:none;stroke-linejoin:round;}.cls-2{stroke:#1d1d1b;stroke-width:.4px;}.cls-3{letter-spacing:0em;}.cls-4{fill:#e7606a;}.cls-5{font-family:ArialMT, Arial;font-size:5.3px;}</style></defs><line class="cls-1" x1="19.2" y1="84.9" x2="205.9" y2="84.9"/><line class="cls-1" x1="19.2" y1="69.5" x2="205.9" y2="69.5"/><line class="cls-1" x1="19.2" y1="53.7" x2="205.9" y2="53.7"/><line class="cls-1" x1="19.2" y1="37.8" x2="205.9" y2="37.8"/><line class="cls-1" x1="19.2" y1="22" x2="205.9" y2="22"/><ellipse class="cls-4" cx="62" cy="100.8" rx="1.1" ry=".2"/><path class="cls-4" d="m76.4,92.3c0-.8.6-1.4,1.3-1.4s1.3.6,1.3,1.4v7.3c0,.8-.6,1.4-1.3,1.4s-1.3-.6-1.3-1.4v-7.3Z"/><path class="cls-4" d="m84.1,88.8c0-.8.6-1.4,1.3-1.4s1.3.6,1.3,1.4v10.8c0,.8-.6,1.4-1.3,1.4s-1.3-.6-1.3-1.4v-10.8Z"/><path class="cls-4" d="m91.8,91.4c0-.8.6-1.4,1.3-1.4s1.3.6,1.3,1.4v8.2c0,.8-.6,1.4-1.3,1.4s-1.3-.6-1.3-1.4v-8.2Z"/><path class="cls-4" d="m99.5,86.1c0-.8.6-1.4,1.3-1.4s1.3.6,1.3,1.4v13.5c0,.8-.6,1.4-1.3,1.4s-1.3-.6-1.3-1.4v-13.5Z"/><path class="cls-4" d="m107.5,57.5c0-.8.6-1.4,1.3-1.4s1.3.6,1.3,1.4v42.1c0,.8-.6,1.4-1.3,1.4s-1.3-.6-1.3-1.4v-42.1Z"/><path class="cls-4" d="m115.2,27.6c0-.8.6-1.4,1.3-1.4s1.3.6,1.3,1.4v72c0,.8-.6,1.4-1.3,1.4s-1.3-.6-1.3-1.4V27.6Z"/><path class="cls-4" d="m122.9,61.5c0-.8.6-1.4,1.3-1.4s1.3.6,1.3,1.4v38.1c0,.8-.6,1.4-1.3,1.4s-1.3-.6-1.3-1.4v-38.1Z"/><path class="cls-4" d="m130.9,87c0-.8.6-1.4,1.3-1.4s1.3.6,1.3,1.4v12.6c0,.8-.6,1.4-1.3,1.4s-1.3-.6-1.3-1.4v-12.6Z"/><path class="cls-4" d="m138.6,90.5c0-.8.6-1.4,1.3-1.4s1.3.6,1.3,1.4v9.1c0,.8-.6,1.4-1.3,1.4s-1.3-.6-1.3-1.4v-9.1Z"/><path class="cls-4" d="m146.3,92.3c0-.8.6-1.4,1.3-1.4s1.3.6,1.3,1.4v7.3c0,.8-.6,1.4-1.3,1.4s-1.3-.6-1.3-1.4v-7.3Z"/><path class="cls-4" d="m154,93.6c0-.8.6-1.4,1.3-1.4s1.3.6,1.3,1.4v6c0,.8-.6,1.4-1.3,1.4s-1.3-.6-1.3-1.4v-6Z"/><path class="cls-4" d="m162,97.1c0-.8.6-1.4,1.3-1.4s1.3.6,1.3,1.4v2.5c0,.8-.6,1.4-1.3,1.4s-1.3-.6-1.3-1.4v-2.5Z"/><ellipse class="cls-4" cx="171" cy="100.8" rx="1.1" ry=".2"/><ellipse class="cls-4" cx="178.8" cy="100.8" rx="1.3" ry=".2"/><ellipse class="cls-4" cx="186.7" cy="100.8" rx="1.3" ry=".2"/><g><text class="cls-5" transform="translate(24.8 122.5) rotate(-90)"><tspan x="0" y="0">12 mn</tspan></text><text class="cls-5" transform="translate(48.4 122.5) rotate(-90)"><tspan x="0" y="0">3am</tspan></text><text class="cls-5" transform="translate(71.6 122.5) rotate(-90)"><tspan x="0" y="0">6am</tspan></text><text class="cls-5" transform="translate(95 122.5) rotate(-90)"><tspan x="0" y="0">9am</tspan></text><text class="cls-5" transform="translate(118.2 122.5) rotate(-90)"><tspan class="cls-3" x="0" y="0">12</tspan><tspan x="5.8" y="0" xml:space="preserve"> noon</tspan></text><text class="cls-5" transform="translate(141.6 122.5) rotate(-90)"><tspan x="0" y="0">3pm</tspan></text><text class="cls-5" transform="translate(165.3 122.5) rotate(-90)"><tspan x="0" y="0">6pm</tspan></text><text class="cls-5" transform="translate(188.3 122.5) rotate(-90)"><tspan x="0" y="0">9pm</tspan></text></g><line class="cls-2" x1="19.2" y1="100.8" x2="205.9" y2="100.8"/></svg>