<?xml version="1.0" encoding="UTF-8"?><svg id="Layer_1" xmlns="http://www.w3.org/2000/svg" viewBox="0 0 212.8 127"><defs><style>.cls-1{letter-spacing:0em;}.cls-2{stroke:#d9d9d9;stroke-width:.2px;}.cls-2,.cls-3{fill:none;stroke-linejoin:round;}.cls-4{letter-spacing:0em;}.cls-5{fill:#595959;font-family:Calibri, Calibri;font-size:8.4px;}.cls-3{stroke:#1d1d1b;stroke-width:.4px;}.cls-6{letter-spacing:0em;}.cls-7{letter-spacing:0em;}.cls-8{fill:#e7606a;}.cls-9{letter-spacing:0em;}.cls-10{font-family:ArialMT, Arial;font-size:5.3px;}</style></defs><line class="cls-2" x1="19.2" y1="84.9" x2="205.9" y2="84.9"/><line class="cls-2" x1="19.2" y1="69.5" x2="205.9" y2="69.5"/><line class="cls-2" x1="19.2" y1="53.6" x2="205.9" y2="53.6"/><line class="cls-2" x1="19.2" y1="37.7" x2="205.9" y2="37.7"/><line class="cls-2" x1="19.2" y1="21.9" x2="205.9" y2="21.9"/><path class="cls-8" d="m76.4,89.6c0-.8.6-1.4,1.3-1.4s1.3.6,1.3,1.4v10c0,.8-.6,1.4-1.3,1.4s-1.3-.6-1.3-1.4v-10Z"/><path class="cls-8" d="m84.1,83.4c0-.8.6-1.4,1.3-1.4s1.3.6,1.3,1.4v16.1c0,.8-.6,1.4-1.3,1.4s-1.3-.6-1.3-1.4v-16.1Z"/><path class="cls-8" d="m91.8,89.2c0-.8.6-1.4,1.3-1.4s1.3.6,1.3,1.4v10.4c0,.8-.6,1.4-1.3,1.4s-1.3-.6-1.3-1.4v-10.4Z"/><path class="cls-8" d="m99.5,83.4c0-.8.6-1.4,1.3-1.4s1.3.6,1.3,1.4v16.1c0,.8-.6,1.4-1.3,1.4s-1.3-.6-1.3-1.4v-16.1Z"/><path class="cls-8" d="m107.5,52.6c0-.8.6-1.4,1.3-1.4s1.3.6,1.3,1.4v47c0,.8-.6,1.4-1.3,1.4s-1.3-.6-1.3-1.4v-47Z"/><path class="cls-8" d="m115.2,32.3c0-.8.6-1.4,1.3-1.4s1.3.6,1.3,1.4v67.3c0,.8-.6,1.4-1.3,1.4s-1.3-.6-1.3-1.4V32.3Z"/><path class="cls-8" d="m122.9,57c0-.8.6-1.4,1.3-1.4s1.3.6,1.3,1.4v42.6c0,.8-.6,1.4-1.3,1.4s-1.3-.6-1.3-1.4v-42.6Z"/><path class="cls-8" d="m130.9,84.8c0-.8.6-1.4,1.3-1.4s1.3.6,1.3,1.4v14.8c0,.8-.6,1.4-1.3,1.4s-1.3-.6-1.3-1.4v-14.8Z"/><path class="cls-8" d="m138.6,89.2c0-.8.6-1.4,1.3-1.4s1.3.6,1.3,1.4v10.4c0,.8-.6,1.4-1.3,1.4s-1.3-.6-1.3-1.4v-10.4Z"/><path class="cls-8" d="m146.3,90.5c0-.8.6-1.4,1.3-1.4s1.3.6,1.3,1.4v9.1c0,.8-.6,1.4-1.3,1.4s-1.3-.6-1.3-1.4v-9.1Z"/><path class="cls-8" d="m154,92.7c0-.8.6-1.4,1.3-1.4s1.3.6,1.3,1.4v6.9c0,.8-.6,1.4-1.3,1.4s-1.3-.6-1.3-1.4v-6.9Z"/><path class="cls-8" d="m162,97.6c0-.8.6-1.4,1.3-1.4s1.3.6,1.3,1.4v2c0,.8-.6,1.4-1.3,1.4s-1.3-.6-1.3-1.4v-2Z"/><text class="cls-5" transform="translate(90.7 12.2)"><tspan class="cls-4" x="0" y="0">S</tspan><tspan class="cls-7" x="4" y="0">a</tspan><tspan class="cls-6" x="7.9" y="0">t</tspan><tspan x="10.6" y="0">u</tspan><tspan class="cls-9" x="15" y="0">r</tspan><tspan x="18.1" y="0">d</tspan><tspan class="cls-7" x="22.5" y="0">a</tspan><tspan x="26.4" y="0">y</tspan></text><line class="cls-3" x1="19.2" y1="100.8" x2="205.9" y2="100.8"/><g><text class="cls-10" transform="translate(24.8 122.5) rotate(-90)"><tspan x="0" y="0">12 mn</tspan></text><text class="cls-10" transform="translate(48.4 122.5) rotate(-90)"><tspan x="0" y="0">3am</tspan></text><text class="cls-10" transform="translate(71.6 122.5) rotate(-90)"><tspan x="0" y="0">6am</tspan></text><text class="cls-10" transform="translate(95 122.5) rotate(-90)"><tspan x="0" y="0">9am</tspan></text><text class="cls-10" transform="translate(118.2 122.5) rotate(-90)"><tspan class="cls-1" x="0" y="0">12</tspan><tspan x="5.8" y="0" xml:space="preserve"> noon</tspan></text><text class="cls-10" transform="translate(141.6 122.5) rotate(-90)"><tspan x="0" y="0">3pm</tspan></text><text class="cls-10" transform="translate(165.3 122.5) rotate(-90)"><tspan x="0" y="0">6pm</tspan></text><text class="cls-10" transform="translate(188.3 122.5) rotate(-90)"><tspan x="0" y="0">9pm</tspan></text></g></svg>