<?xml version="1.0" encoding="UTF-8"?><svg id="Layer_1" xmlns="http://www.w3.org/2000/svg" viewBox="0 0 212.8 127"><defs><style>.cls-1{stroke:#d9d9d9;stroke-width:.2px;}.cls-1,.cls-2{fill:none;stroke-linejoin:round;}.cls-2{stroke:#1d1d1b;stroke-width:.4px;}.cls-3{font-family:ArialMT, Arial;font-size:5.3px;}.cls-4{letter-spacing:0em;}.cls-5{fill:#e7606a;}</style></defs><path class="cls-1" d="m16.6,85.4h189.8m-189.8-15.8h189.8M16.6,53.7h189.8M16.6,37.9h189.8M16.6,22h189.8"/><ellipse class="cls-5" cx="52.1" cy="100.4" rx="1.3" ry=".7"/><ellipse class="cls-5" cx="60" cy="100.4" rx="1.3" ry=".7"/><path class="cls-5" d="m66.6,87c0-.8.6-1.4,1.3-1.4s1.3.6,1.3,1.4v12.6c0,.8-.6,1.4-1.3,1.4s-1.3-.6-1.3-1.4v-12.6Z"/><path class="cls-5" d="m74.6,76.5c0-.8.6-1.4,1.3-1.4s1.3.6,1.3,1.4v23.1c0,.8-.6,1.4-1.3,1.4s-1.3-.6-1.3-1.4v-23.1Z"/><path class="cls-5" d="m82.5,70.7c0-.8.6-1.4,1.3-1.4s1.3.6,1.3,1.4v28.9c0,.8-.6,1.4-1.3,1.4s-1.3-.6-1.3-1.4v-28.9Z"/><path class="cls-5" d="m90.5,63.7c0-.8.6-1.4,1.3-1.4s1.3.6,1.3,1.4v35.9c0,.8-.6,1.4-1.3,1.4s-1.3-.6-1.3-1.4v-35.9Z"/><path class="cls-5" d="m98.4,65.9c0-.8.6-1.4,1.3-1.4s1.3.6,1.3,1.4v33.7c0,.8-.6,1.4-1.3,1.4s-1.3-.6-1.3-1.4v-33.7Z"/><path class="cls-5" d="m106.1,53.6c0-.8.6-1.4,1.3-1.4s1.3.6,1.3,1.4v46c0,.8-.6,1.4-1.3,1.4s-1.3-.6-1.3-1.4v-46Z"/><path class="cls-5" d="m114.1,47c0-.8.6-1.4,1.3-1.4s1.3.6,1.3,1.4v52.6c0,.8-.6,1.4-1.3,1.4s-1.3-.6-1.3-1.4v-52.6Z"/><path class="cls-5" d="m122,51.8c0-.8.6-1.4,1.3-1.4s1.3.6,1.3,1.4v47.8c0,.8-.6,1.4-1.3,1.4s-1.3-.6-1.3-1.4v-47.8Z"/><path class="cls-5" d="m129.8,54.9c0-.8.6-1.4,1.3-1.4s1.3.6,1.3,1.4v44.7c0,.8-.6,1.4-1.3,1.4s-1.3-.6-1.3-1.4v-44.7Z"/><path class="cls-5" d="m137.7,53.6c0-.8.6-1.4,1.3-1.4s1.3.6,1.3,1.4v46c0,.8-.6,1.4-1.3,1.4s-1.3-.6-1.3-1.4v-46Z"/><path class="cls-5" d="m145.6,43.5c0-.8.6-1.4,1.3-1.4s1.3.6,1.3,1.4v56.2c0,.8-.6,1.4-1.3,1.4s-1.3-.6-1.3-1.4v-56.2Z"/><path class="cls-5" d="m153.6,54.5c0-.8.6-1.4,1.3-1.4s1.3.6,1.3,1.4v45.1c0,.8-.6,1.4-1.3,1.4s-1.3-.6-1.3-1.4v-45.1Z"/><path class="cls-5" d="m161.5,58.4c0-.8.6-1.4,1.3-1.4s1.3.6,1.3,1.4v41.2c0,.8-.6,1.4-1.3,1.4s-1.3-.6-1.3-1.4v-41.2Z"/><path class="cls-5" d="m169.5,58.9c0-.8.6-1.4,1.3-1.4s1.3.6,1.3,1.4v40.7c0,.8-.6,1.4-1.3,1.4s-1.3-.6-1.3-1.4v-40.7Z"/><path class="cls-5" d="m177.4,87.9c0-.8.5-1.4,1.1-1.4s1.1.6,1.1,1.4v11.7c0,.8-.5,1.4-1.1,1.4s-1.1-.6-1.1-1.4v-11.7Z"/><text class="cls-3" transform="translate(22.3 122.5) rotate(-90)"><tspan x="0" y="0">12 mn</tspan></text><text class="cls-3" transform="translate(46 122.5) rotate(-90)"><tspan x="0" y="0">3am</tspan></text><text class="cls-3" transform="translate(69.7 122.5) rotate(-90)"><tspan x="0" y="0">6am</tspan></text><text class="cls-3" transform="translate(93.4 122.5) rotate(-90)"><tspan x="0" y="0">9am</tspan></text><text class="cls-3" transform="translate(117.1 122.5) rotate(-90)"><tspan class="cls-4" x="0" y="0">12</tspan><tspan x="5.8" y="0" xml:space="preserve"> noon</tspan></text><text class="cls-3" transform="translate(140.8 122.5) rotate(-90)"><tspan x="0" y="0">3pm</tspan></text><text class="cls-3" transform="translate(164.5 122.5) rotate(-90)"><tspan x="0" y="0">6pm</tspan></text><text class="cls-3" transform="translate(188.2 122.5) rotate(-90)"><tspan x="0" y="0">9pm</tspan></text><line class="cls-2" x1="16.6" y1="101.2" x2="206.3" y2="101.2"/></svg>