<?xml version="1.0" encoding="UTF-8"?><svg id="Layer_1" xmlns="http://www.w3.org/2000/svg" viewBox="0 0 213.2 127"><defs><style>.cls-1{stroke:#1d1d1b;stroke-width:.4px;}.cls-1,.cls-2{fill:none;stroke-linejoin:round;}.cls-3{letter-spacing:0em;}.cls-2{stroke:#d9d9d9;stroke-width:.2px;}.cls-4{font-family:ArialMT, Arial;font-size:5.3px;}.cls-5{letter-spacing:0em;}.cls-6{fill:#e7606a;}</style></defs><path class="cls-2" d="m17,85h189.8m-189.8-15.8h189.8M17,53.7h189.8M17,37.9h189.8M17,22h189.8"/><ellipse class="cls-6" cx="21" cy="100.8" rx="1.1" ry=".2"/><ellipse class="cls-6" cx="36.6" cy="100.8" rx="1.3" ry=".2"/><ellipse class="cls-6" cx="44.6" cy="100.8" rx="1.3" ry=".2"/><ellipse class="cls-6" cx="52.5" cy="100.1" rx="1.3" ry=".9"/><path class="cls-6" d="m59.1,99.4c0-.8.6-1.4,1.3-1.4s1.3.6,1.3,1.4v.2c0,.8-.6,1.4-1.3,1.4s-1.3-.6-1.3-1.4v-.2Z"/><path class="cls-6" d="m67.1,78.2c0-.8.6-1.4,1.3-1.4s1.3.6,1.3,1.4v21.4c0,.8-.6,1.4-1.3,1.4s-1.3-.6-1.3-1.4v-21.4Z"/><path class="cls-6" d="m75,59.7c0-.8.6-1.4,1.3-1.4s1.3.6,1.3,1.4v39.9c0,.8-.6,1.4-1.3,1.4s-1.3-.6-1.3-1.4v-39.9Z"/><path class="cls-6" d="m82.8,53.1c0-.8.6-1.4,1.3-1.4s1.3.6,1.3,1.4v46.5c0,.8-.6,1.4-1.3,1.4s-1.3-.6-1.3-1.4v-46.5Z"/><path class="cls-6" d="m90.7,53.6c0-.8.6-1.4,1.3-1.4s1.3.6,1.3,1.4v46c0,.8-.6,1.4-1.3,1.4s-1.3-.6-1.3-1.4v-46Z"/><path class="cls-6" d="m98.6,31.6c0-.8.6-1.4,1.3-1.4s1.3.6,1.3,1.4v68c0,.8-.6,1.4-1.3,1.4s-1.3-.6-1.3-1.4V31.6Z"/><path class="cls-6" d="m106.6,39.1c0-.8.6-1.4,1.3-1.4s1.3.6,1.3,1.4v60.6c0,.8-.6,1.4-1.3,1.4s-1.3-.6-1.3-1.4v-60.6Z"/><path class="cls-6" d="m114.3,30.2c0-.8.6-1.4,1.3-1.4s1.3.6,1.3,1.4v69.4c0,.8-.6,1.4-1.3,1.4s-1.3-.6-1.3-1.4V30.2Z"/><path class="cls-6" d="m122.3,40.8c0-.8.6-1.4,1.3-1.4s1.3.6,1.3,1.4v58.8c0,.8-.6,1.4-1.3,1.4s-1.3-.6-1.3-1.4v-58.8Z"/><path class="cls-6" d="m130.2,39.1c0-.8.6-1.4,1.3-1.4s1.3.6,1.3,1.4v60.6c0,.8-.6,1.4-1.3,1.4s-1.3-.6-1.3-1.4v-60.6Z"/><path class="cls-6" d="m138.1,39.5c0-.8.6-1.4,1.3-1.4s1.3.6,1.3,1.4v60.1c0,.8-.6,1.4-1.3,1.4s-1.3-.6-1.3-1.4v-60.1Z"/><path class="cls-6" d="m146.1,49.6c0-.8.6-1.4,1.3-1.4s1.3.6,1.3,1.4v50c0,.8-.6,1.4-1.3,1.4s-1.3-.6-1.3-1.4v-50Z"/><path class="cls-6" d="m154,49.6c0-.8.6-1.4,1.3-1.4s1.3.6,1.3,1.4v50c0,.8-.6,1.4-1.3,1.4s-1.3-.6-1.3-1.4v-50Z"/><path class="cls-6" d="m161.8,45.7c0-.8.6-1.4,1.3-1.4s1.3.6,1.3,1.4v54c0,.8-.6,1.4-1.3,1.4s-1.3-.6-1.3-1.4v-54Z"/><path class="cls-6" d="m169.7,50.9c0-.8.6-1.4,1.3-1.4s1.3.6,1.3,1.4v48.7c0,.8-.6,1.4-1.3,1.4s-1.3-.6-1.3-1.4v-48.7Z"/><path class="cls-6" d="m177.6,86.2c0-.8.6-1.4,1.3-1.4s1.3.6,1.3,1.4v13.5c0,.8-.6,1.4-1.3,1.4s-1.3-.6-1.3-1.4v-13.5Z"/><circle class="cls-6" cx="186.7" cy="99.7" r="1.3"/><ellipse class="cls-6" cx="194.6" cy="100.8" rx="1.3" ry=".2"/><text class="cls-4" transform="translate(22.3 122.5) rotate(-90)"><tspan x="0" y="0">12 mn</tspan></text><text class="cls-4" transform="translate(46 122.5) rotate(-90)"><tspan x="0" y="0">3am</tspan></text><text class="cls-4" transform="translate(69.7 122.5) rotate(-90)"><tspan x="0" y="0">6am</tspan></text><text class="cls-4" transform="translate(93.4 122.5) rotate(-90)"><tspan x="0" y="0">9am</tspan></text><text class="cls-4" transform="translate(117.1 122.5) rotate(-90)"><tspan class="cls-3" x="0" y="0">12</tspan><tspan class="cls-5" x="5.8" y="0" xml:space="preserve"> noon</tspan></text><text class="cls-4" transform="translate(140.8 122.5) rotate(-90)"><tspan x="0" y="0">3pm</tspan></text><text class="cls-4" transform="translate(164.5 122.5) rotate(-90)"><tspan x="0" y="0">6pm</tspan></text><text class="cls-4" transform="translate(188.2 122.5) rotate(-90)"><tspan x="0" y="0">9pm</tspan></text><line class="cls-1" x1="17" y1="100.8" x2="206.8" y2="100.8"/></svg>