<?xml version="1.0" encoding="UTF-8"?><svg id="Layer_1" xmlns="http://www.w3.org/2000/svg" viewBox="0 0 213.2 127"><defs><style>.cls-1{stroke:#1d1d1b;stroke-width:.4px;}.cls-1,.cls-2{fill:none;stroke-linejoin:round;}.cls-2{stroke:#d9d9d9;stroke-width:.2px;}.cls-3{letter-spacing:0em;}.cls-4{fill:#e7606a;}.cls-5{font-family:ArialMT, Arial;font-size:5.3px;}</style></defs><path class="cls-2" d="m17,85.4h189.8m-189.8-15.8h189.8M17,53.7h189.8M17,37.9h189.8M17,22h189.8"/><circle class="cls-4" cx="52.5" cy="99.7" r="1.3"/><circle class="cls-4" cx="60.5" cy="99.7" r="1.3"/><path class="cls-4" d="m67.1,83.5c0-.8.6-1.4,1.3-1.4s1.3.6,1.3,1.4v16.1c0,.8-.6,1.4-1.3,1.4s-1.3-.6-1.3-1.4v-16.1Z"/><path class="cls-4" d="m75,58.9c0-.8.6-1.4,1.3-1.4s1.3.6,1.3,1.4v40.7c0,.8-.6,1.4-1.3,1.4s-1.3-.6-1.3-1.4v-40.7Z"/><path class="cls-4" d="m82.8,62.8c0-.8.6-1.4,1.3-1.4s1.3.6,1.3,1.4v36.8c0,.8-.6,1.4-1.3,1.4s-1.3-.6-1.3-1.4v-36.8Z"/><path class="cls-4" d="m90.7,53.6c0-.8.6-1.4,1.3-1.4s1.3.6,1.3,1.4v46c0,.8-.6,1.4-1.3,1.4s-1.3-.6-1.3-1.4v-46Z"/><path class="cls-4" d="m98.6,56.2c0-.8.6-1.4,1.3-1.4s1.3.6,1.3,1.4v43.4c0,.8-.6,1.4-1.3,1.4s-1.3-.6-1.3-1.4v-43.4Z"/><path class="cls-4" d="m106.6,50.1c0-.8.6-1.4,1.3-1.4s1.3.6,1.3,1.4v49.5c0,.8-.6,1.4-1.3,1.4s-1.3-.6-1.3-1.4v-49.5Z"/><path class="cls-4" d="m114.3,41.7c0-.8.6-1.4,1.3-1.4s1.3.6,1.3,1.4v57.9c0,.8-.6,1.4-1.3,1.4s-1.3-.6-1.3-1.4v-57.9Z"/><path class="cls-4" d="m122.3,39.9c0-.8.6-1.4,1.3-1.4s1.3.6,1.3,1.4v59.7c0,.8-.6,1.4-1.3,1.4s-1.3-.6-1.3-1.4v-59.7Z"/><path class="cls-4" d="m130.2,48.7c0-.8.6-1.4,1.3-1.4s1.3.6,1.3,1.4v50.9c0,.8-.6,1.4-1.3,1.4s-1.3-.6-1.3-1.4v-50.9Z"/><path class="cls-4" d="m138.1,52.7c0-.8.6-1.4,1.3-1.4s1.3.6,1.3,1.4v46.9c0,.8-.6,1.4-1.3,1.4s-1.3-.6-1.3-1.4v-46.9Z"/><path class="cls-4" d="m146.1,61.9c0-.8.6-1.4,1.3-1.4s1.3.6,1.3,1.4v37.7c0,.8-.6,1.4-1.3,1.4s-1.3-.6-1.3-1.4v-37.7Z"/><path class="cls-4" d="m154,63.3c0-.8.6-1.4,1.3-1.4s1.3.6,1.3,1.4v36.3c0,.8-.6,1.4-1.3,1.4s-1.3-.6-1.3-1.4v-36.3Z"/><path class="cls-4" d="m161.8,68.1c0-.8.6-1.4,1.3-1.4s1.3.6,1.3,1.4v31.5c0,.8-.6,1.4-1.3,1.4s-1.3-.6-1.3-1.4v-31.5Z"/><path class="cls-4" d="m169.7,63.3c0-.8.6-1.4,1.3-1.4s1.3.6,1.3,1.4v36.3c0,.8-.6,1.4-1.3,1.4s-1.3-.6-1.3-1.4v-36.3Z"/><path class="cls-4" d="m177.6,82.2c0-.8.6-1.4,1.3-1.4s1.3.6,1.3,1.4v17.4c0,.8-.6,1.4-1.3,1.4s-1.3-.6-1.3-1.4v-17.4Z"/><text class="cls-5" transform="translate(22.3 122.5) rotate(-90)"><tspan x="0" y="0">12 mn</tspan></text><text class="cls-5" transform="translate(46 122.5) rotate(-90)"><tspan x="0" y="0">3am</tspan></text><text class="cls-5" transform="translate(69.7 122.5) rotate(-90)"><tspan x="0" y="0">6am</tspan></text><text class="cls-5" transform="translate(93.4 122.5) rotate(-90)"><tspan x="0" y="0">9am</tspan></text><text class="cls-5" transform="translate(117.1 122.5) rotate(-90)"><tspan class="cls-3" x="0" y="0">12</tspan><tspan x="5.8" y="0" xml:space="preserve"> noon</tspan></text><text class="cls-5" transform="translate(140.8 122.5) rotate(-90)"><tspan x="0" y="0">3pm</tspan></text><text class="cls-5" transform="translate(164.5 122.5) rotate(-90)"><tspan x="0" y="0">6pm</tspan></text><text class="cls-5" transform="translate(188.2 122.5) rotate(-90)"><tspan x="0" y="0">9pm</tspan></text><line class="cls-1" x1="17" y1="101.2" x2="206.8" y2="101.2"/></svg>