<?xml version="1.0" encoding="UTF-8"?><svg id="Layer_1" xmlns="http://www.w3.org/2000/svg" viewBox="0 0 212.8 127"><defs><style>.cls-1{letter-spacing:0em;}.cls-2{font-family:ArialMT, Arial;font-size:5.3px;}.cls-3{stroke:#1d1d1b;stroke-width:.4px;}.cls-3,.cls-4{fill:none;stroke-linejoin:round;}.cls-5{fill:#e7606a;}.cls-4{stroke:#d9d9d9;stroke-width:.2px;}</style></defs><path class="cls-4" d="m16.5,85.4h189.7m-189.7-15.8h189.7M16.5,53.7h189.7M16.5,37.8h189.7M16.5,22h189.7"/><ellipse class="cls-5" cx="52.1" cy="100.1" rx="1.3" ry=".9"/><ellipse class="cls-5" cx="60" cy="100.1" rx="1.3" ry=".9"/><path class="cls-5" d="m66.6,80.9c0-.8.6-1.4,1.3-1.4s1.3.6,1.3,1.4v18.7c0,.8-.6,1.4-1.3,1.4s-1.3-.6-1.3-1.4v-18.7Z"/><path class="cls-5" d="m74.6,56.2c0-.8.6-1.4,1.3-1.4s1.3.6,1.3,1.4v43.4c0,.8-.6,1.4-1.3,1.4s-1.3-.6-1.3-1.4v-43.4Z"/><path class="cls-5" d="m82.5,51.8c0-.8.6-1.4,1.3-1.4s1.3.6,1.3,1.4v47.8c0,.8-.6,1.4-1.3,1.4s-1.3-.6-1.3-1.4v-47.8Z"/><path class="cls-5" d="m90.5,44.8c0-.8.6-1.4,1.3-1.4s1.3.6,1.3,1.4v54.8c0,.8-.6,1.4-1.3,1.4s-1.3-.6-1.3-1.4v-54.8Z"/><path class="cls-5" d="m98.4,51.8c0-.8.6-1.4,1.3-1.4s1.3.6,1.3,1.4v47.8c0,.8-.6,1.4-1.3,1.4s-1.3-.6-1.3-1.4v-47.8Z"/><path class="cls-5" d="m106.1,45.6c0-.8.6-1.4,1.3-1.4s1.3.6,1.3,1.4v54c0,.8-.6,1.4-1.3,1.4s-1.3-.6-1.3-1.4v-54Z"/><path class="cls-5" d="m114.1,26.7c0-.8.6-1.4,1.3-1.4s1.3.6,1.3,1.4v72.9c0,.8-.6,1.4-1.3,1.4s-1.3-.6-1.3-1.4V26.7Z"/><path class="cls-5" d="m122,39.5c0-.8.6-1.4,1.3-1.4s1.3.6,1.3,1.4v60.1c0,.8-.6,1.4-1.3,1.4s-1.3-.6-1.3-1.4v-60.1Z"/><path class="cls-5" d="m129.7,43.4c0-.8.6-1.4,1.3-1.4s1.3.6,1.3,1.4v56.2c0,.8-.6,1.4-1.3,1.4s-1.3-.6-1.3-1.4v-56.2Z"/><path class="cls-5" d="m137.7,35.5c0-.8.6-1.4,1.3-1.4s1.3.6,1.3,1.4v64.1c0,.8-.6,1.4-1.3,1.4s-1.3-.6-1.3-1.4V35.5Z"/><path class="cls-5" d="m145.6,49.6c0-.8.6-1.4,1.3-1.4s1.3.6,1.3,1.4v50c0,.8-.6,1.4-1.3,1.4s-1.3-.6-1.3-1.4v-50Z"/><path class="cls-5" d="m153.6,53.6c0-.8.6-1.4,1.3-1.4s1.3.6,1.3,1.4v46c0,.8-.6,1.4-1.3,1.4s-1.3-.6-1.3-1.4v-46Z"/><path class="cls-5" d="m161.5,48.7c0-.8.6-1.4,1.3-1.4s1.3.6,1.3,1.4v50.9c0,.8-.6,1.4-1.3,1.4s-1.3-.6-1.3-1.4v-50.9Z"/><path class="cls-5" d="m169.4,58.9c0-.8.6-1.4,1.3-1.4s1.3.6,1.3,1.4v40.8c0,.8-.6,1.4-1.3,1.4s-1.3-.6-1.3-1.4v-40.8Z"/><path class="cls-5" d="m177.2,79.1c0-.8.6-1.4,1.3-1.4s1.3.6,1.3,1.4v20.5c0,.8-.6,1.4-1.3,1.4s-1.3-.6-1.3-1.4v-20.5Z"/><text class="cls-2" transform="translate(22.3 122.5) rotate(-90)"><tspan x="0" y="0">12 mn</tspan></text><text class="cls-2" transform="translate(46 122.5) rotate(-90)"><tspan x="0" y="0">3am</tspan></text><text class="cls-2" transform="translate(69.7 122.5) rotate(-90)"><tspan x="0" y="0">6am</tspan></text><text class="cls-2" transform="translate(93.3 122.5) rotate(-90)"><tspan x="0" y="0">9am</tspan></text><text class="cls-2" transform="translate(117 122.5) rotate(-90)"><tspan class="cls-1" x="0" y="0">12</tspan><tspan x="5.8" y="0" xml:space="preserve"> noon</tspan></text><text class="cls-2" transform="translate(140.7 122.5) rotate(-90)"><tspan x="0" y="0">3pm</tspan></text><text class="cls-2" transform="translate(164.4 122.5) rotate(-90)"><tspan x="0" y="0">6pm</tspan></text><text class="cls-2" transform="translate(188.1 122.5) rotate(-90)"><tspan x="0" y="0">9pm</tspan></text><line class="cls-3" x1="16.5" y1="101.2" x2="206.3" y2="101.2"/></svg>