<?xml version="1.0" encoding="UTF-8"?><svg id="Layer_1" xmlns="http://www.w3.org/2000/svg" viewBox="0 0 212.8 127"><defs><style>.cls-1{font-family:ArialMT, Arial;font-size:5.3px;}.cls-2{stroke:#d9d9d9;stroke-width:.2px;}.cls-2,.cls-3{fill:none;stroke-linejoin:round;}.cls-3{stroke:#1d1d1b;stroke-width:.4px;}.cls-4{fill:#e7606a;}.cls-5{letter-spacing:0em;}</style></defs><path class="cls-2" d="m16.6,85.4h189.8m-189.8-15.8h189.8M16.6,53.7h189.8M16.6,37.9h189.8M16.6,22h189.8"/><ellipse class="cls-4" cx="52.1" cy="99.9" rx="1.3" ry="1.1"/><ellipse class="cls-4" cx="60" cy="100.4" rx="1.3" ry=".7"/><path class="cls-4" d="m66.6,84c0-.8.6-1.4,1.3-1.4s1.3.6,1.3,1.4v15.7c0,.8-.6,1.4-1.3,1.4s-1.3-.6-1.3-1.4v-15.7Z"/><path class="cls-4" d="m74.6,70.3c0-.8.6-1.4,1.3-1.4s1.3.6,1.3,1.4v29.3c0,.8-.6,1.4-1.3,1.4s-1.3-.6-1.3-1.4v-29.3Z"/><path class="cls-4" d="m82.5,65.9c0-.8.6-1.4,1.3-1.4s1.3.6,1.3,1.4v33.7c0,.8-.6,1.4-1.3,1.4s-1.3-.6-1.3-1.4v-33.7Z"/><path class="cls-4" d="m90.5,60.2c0-.8.6-1.4,1.3-1.4s1.3.6,1.3,1.4v39.4c0,.8-.6,1.4-1.3,1.4s-1.3-.6-1.3-1.4v-39.4Z"/><path class="cls-4" d="m98.4,46.1c0-.8.6-1.4,1.3-1.4s1.3.6,1.3,1.4v53.5c0,.8-.6,1.4-1.3,1.4s-1.3-.6-1.3-1.4v-53.5Z"/><path class="cls-4" d="m106.1,47.4c0-.8.6-1.4,1.3-1.4s1.3.6,1.3,1.4v52.2c0,.8-.6,1.4-1.3,1.4s-1.3-.6-1.3-1.4v-52.2Z"/><path class="cls-4" d="m114.1,37.3c0-.8.6-1.4,1.3-1.4s1.3.6,1.3,1.4v62.3c0,.8-.6,1.4-1.3,1.4s-1.3-.6-1.3-1.4v-62.3Z"/><path class="cls-4" d="m122,44.3c0-.8.6-1.4,1.3-1.4s1.3.6,1.3,1.4v55.3c0,.8-.6,1.4-1.3,1.4s-1.3-.6-1.3-1.4v-55.3Z"/><path class="cls-4" d="m129.8,44.8c0-.8.6-1.4,1.3-1.4s1.3.6,1.3,1.4v54.8c0,.8-.6,1.4-1.3,1.4s-1.3-.6-1.3-1.4v-54.8Z"/><path class="cls-4" d="m137.7,53.1c0-.8.6-1.4,1.3-1.4s1.3.6,1.3,1.4v46.5c0,.8-.6,1.4-1.3,1.4s-1.3-.6-1.3-1.4v-46.5Z"/><path class="cls-4" d="m145.6,46.1c0-.8.6-1.4,1.3-1.4s1.3.6,1.3,1.4v53.5c0,.8-.6,1.4-1.3,1.4s-1.3-.6-1.3-1.4v-53.5Z"/><path class="cls-4" d="m153.6,58.4c0-.8.6-1.4,1.3-1.4s1.3.6,1.3,1.4v41.2c0,.8-.6,1.4-1.3,1.4s-1.3-.6-1.3-1.4v-41.2Z"/><path class="cls-4" d="m161.5,52.3c0-.8.6-1.4,1.3-1.4s1.3.6,1.3,1.4v47.3c0,.8-.6,1.4-1.3,1.4s-1.3-.6-1.3-1.4v-47.3Z"/><path class="cls-4" d="m169.5,68.5c0-.8.6-1.4,1.3-1.4s1.3.6,1.3,1.4v31.1c0,.8-.6,1.4-1.3,1.4s-1.3-.6-1.3-1.4v-31.1Z"/><path class="cls-4" d="m177.2,90.6c0-.8.6-1.4,1.3-1.4s1.3.6,1.3,1.4v9.1c0,.8-.6,1.4-1.3,1.4s-1.3-.6-1.3-1.4v-9.1Z"/><ellipse class="cls-4" cx="186.5" cy="100.4" rx="1.3" ry=".7"/><text class="cls-1" transform="translate(22.3 122.5) rotate(-90)"><tspan x="0" y="0">12 mn</tspan></text><text class="cls-1" transform="translate(46 122.5) rotate(-90)"><tspan x="0" y="0">3am</tspan></text><text class="cls-1" transform="translate(69.7 122.5) rotate(-90)"><tspan x="0" y="0">6am</tspan></text><text class="cls-1" transform="translate(93.4 122.5) rotate(-90)"><tspan x="0" y="0">9am</tspan></text><text class="cls-1" transform="translate(117.1 122.5) rotate(-90)"><tspan class="cls-5" x="0" y="0">12</tspan><tspan x="5.8" y="0" xml:space="preserve"> noon</tspan></text><text class="cls-1" transform="translate(140.8 122.5) rotate(-90)"><tspan x="0" y="0">3pm</tspan></text><text class="cls-1" transform="translate(164.5 122.5) rotate(-90)"><tspan x="0" y="0">6pm</tspan></text><text class="cls-1" transform="translate(188.2 122.5) rotate(-90)"><tspan x="0" y="0">9pm</tspan></text><line class="cls-3" x1="16.6" y1="101.2" x2="206.3" y2="101.2"/></svg>