<?xml version="1.0" encoding="UTF-8"?><svg id="Layer_1" xmlns="http://www.w3.org/2000/svg" viewBox="0 0 213.2 127"><defs><style>.cls-1{font-family:ArialMT, Arial;font-size:5.3px;}.cls-2{stroke:#1d1d1b;stroke-width:.4px;}.cls-2,.cls-3{fill:none;stroke-linejoin:round;}.cls-4{fill:#e7606a;}.cls-3{stroke:#d9d9d9;stroke-width:.2px;}.cls-5{letter-spacing:0em;}</style></defs><text class="cls-1" transform="translate(22.3 122.5) rotate(-90)"><tspan x="0" y="0">12 mn</tspan></text><text class="cls-1" transform="translate(45.9 122.5) rotate(-90)"><tspan x="0" y="0">3am</tspan></text><text class="cls-1" transform="translate(69.6 122.5) rotate(-90)"><tspan x="0" y="0">6am</tspan></text><text class="cls-1" transform="translate(93.3 122.5) rotate(-90)"><tspan x="0" y="0">9am</tspan></text><text class="cls-1" transform="translate(117 122.5) rotate(-90)"><tspan class="cls-5" x="0" y="0">12</tspan><tspan x="5.8" y="0" xml:space="preserve"> noon</tspan></text><text class="cls-1" transform="translate(140.7 122.5) rotate(-90)"><tspan x="0" y="0">3pm</tspan></text><text class="cls-1" transform="translate(164.4 122.5) rotate(-90)"><tspan x="0" y="0">6pm</tspan></text><text class="cls-1" transform="translate(188 122.5) rotate(-90)"><tspan x="0" y="0">9pm</tspan></text><path class="cls-3" d="m17,85.5h189.7m-189.7-15.8h189.7M17,53.8h189.7M17,38h189.7M17,22.2h189.7"/><circle class="cls-4" cx="28.9" cy="100" r="1.1"/><path class="cls-4" d="m35.3,98.1c0-.8.6-1.4,1.3-1.4s1.3.6,1.3,1.4v1.6c0,.8-.6,1.4-1.3,1.4s-1.3-.6-1.3-1.4v-1.6Z"/><ellipse class="cls-4" cx="52.5" cy="100" rx="1.3" ry="1.1"/><ellipse class="cls-4" cx="60.4" cy="100.6" rx="1.3" ry=".4"/><path class="cls-4" d="m67,87.5c0-.8.6-1.4,1.3-1.4s1.3.6,1.3,1.4v12.1c0,.8-.6,1.4-1.3,1.4s-1.3-.6-1.3-1.4v-12.1Z"/><path class="cls-4" d="m75,72.1c0-.8.6-1.4,1.3-1.4s1.3.6,1.3,1.4v27.5c0,.8-.6,1.4-1.3,1.4s-1.3-.6-1.3-1.4v-27.5Z"/><path class="cls-4" d="m82.7,60.7c0-.8.6-1.4,1.3-1.4s1.3.6,1.3,1.4v38.9c0,.8-.6,1.4-1.3,1.4s-1.3-.6-1.3-1.4v-38.9Z"/><path class="cls-4" d="m90.6,59.8c0-.8.6-1.4,1.3-1.4s1.3.6,1.3,1.4v39.8c0,.8-.6,1.4-1.3,1.4s-1.3-.6-1.3-1.4v-39.8Z"/><path class="cls-4" d="m98.6,48.8c0-.8.6-1.4,1.3-1.4s1.3.6,1.3,1.4v50.8c0,.8-.6,1.4-1.3,1.4s-1.3-.6-1.3-1.4v-50.8Z"/><path class="cls-4" d="m106.5,43.1c0-.8.6-1.4,1.3-1.4s1.3.6,1.3,1.4v56.5c0,.8-.6,1.4-1.3,1.4s-1.3-.6-1.3-1.4v-56.5Z"/><path class="cls-4" d="m114.2,35.7c0-.8.6-1.4,1.3-1.4s1.3.6,1.3,1.4v64c0,.8-.6,1.4-1.3,1.4s-1.3-.6-1.3-1.4v-64Z"/><path class="cls-4" d="m122.2,36.5c0-.8.6-1.4,1.3-1.4s1.3.6,1.3,1.4v63.1c0,.8-.6,1.4-1.3,1.4s-1.3-.6-1.3-1.4v-63.1Z"/><path class="cls-4" d="m130.1,42.3c0-.8.6-1.4,1.3-1.4s1.3.6,1.3,1.4v57.4c0,.8-.6,1.4-1.3,1.4s-1.3-.6-1.3-1.4v-57.4Z"/><path class="cls-4" d="m138.1,39.6c0-.8.6-1.4,1.3-1.4s1.3.6,1.3,1.4v60c0,.8-.6,1.4-1.3,1.4s-1.3-.6-1.3-1.4v-60Z"/><path class="cls-4" d="m146,48.8c0-.8.6-1.4,1.3-1.4s1.3.6,1.3,1.4v50.8c0,.8-.6,1.4-1.3,1.4s-1.3-.6-1.3-1.4v-50.8Z"/><path class="cls-4" d="m153.9,51.5c0-.8.6-1.4,1.3-1.4s1.3.6,1.3,1.4v48.2c0,.8-.6,1.4-1.3,1.4s-1.3-.6-1.3-1.4v-48.2Z"/><path class="cls-4" d="m161.7,52.4c0-.8.6-1.4,1.3-1.4s1.3.6,1.3,1.4v47.3c0,.8-.6,1.4-1.3,1.4s-1.3-.6-1.3-1.4v-47.3Z"/><path class="cls-4" d="m169.6,57.2c0-.8.6-1.4,1.3-1.4s1.3.6,1.3,1.4v42.4c0,.8-.6,1.4-1.3,1.4s-1.3-.6-1.3-1.4v-42.4Z"/><path class="cls-4" d="m177.5,88.4c0-.8.6-1.4,1.3-1.4s1.3.6,1.3,1.4v11.2c0,.8-.6,1.4-1.3,1.4s-1.3-.6-1.3-1.4v-11.2Z"/><line class="cls-2" x1="17" y1="101.3" x2="206.6" y2="101.3"/></svg>