<?xml version="1.0" encoding="UTF-8"?><svg id="Layer_1" xmlns="http://www.w3.org/2000/svg" viewBox="0 0 213.2 127"><defs><style>.cls-1{stroke:#1d1d1b;stroke-width:.4px;}.cls-1,.cls-2{fill:none;stroke-linejoin:round;}.cls-2{stroke:#d9d9d9;stroke-width:.2px;}.cls-3{fill:#e7606a;}.cls-4{font-family:ArialMT, Arial;font-size:5.3px;}.cls-5{letter-spacing:0em;}.cls-6{letter-spacing:0em;}</style></defs><path class="cls-2" d="m17,85.4h189.8m-189.8-15.8h189.8M17,53.7h189.8M17,37.9h189.8M17,22h189.8"/><ellipse class="cls-3" cx="52.5" cy="99.9" rx="1.3" ry="1.1"/><ellipse class="cls-3" cx="60.5" cy="99.9" rx="1.3" ry="1.1"/><path class="cls-3" d="m67.1,82.2c0-.8.6-1.4,1.3-1.4s1.3.6,1.3,1.4v17.4c0,.8-.6,1.4-1.3,1.4s-1.3-.6-1.3-1.4v-17.4Z"/><path class="cls-3" d="m75,69.4c0-.8.6-1.4,1.3-1.4s1.3.6,1.3,1.4v30.2c0,.8-.6,1.4-1.3,1.4s-1.3-.6-1.3-1.4v-30.2Z"/><path class="cls-3" d="m82.8,66.8c0-.8.6-1.4,1.3-1.4s1.3.6,1.3,1.4v32.8c0,.8-.6,1.4-1.3,1.4s-1.3-.6-1.3-1.4v-32.8Z"/><path class="cls-3" d="m90.7,54.5c0-.8.6-1.4,1.3-1.4s1.3.6,1.3,1.4v45.1c0,.8-.6,1.4-1.3,1.4s-1.3-.6-1.3-1.4v-45.1Z"/><path class="cls-3" d="m98.6,51.4c0-.8.6-1.4,1.3-1.4s1.3.6,1.3,1.4v48.2c0,.8-.6,1.4-1.3,1.4s-1.3-.6-1.3-1.4v-48.2Z"/><path class="cls-3" d="m106.6,42.1c0-.8.6-1.4,1.3-1.4s1.3.6,1.3,1.4v57.5c0,.8-.6,1.4-1.3,1.4s-1.3-.6-1.3-1.4v-57.5Z"/><path class="cls-3" d="m114.3,29.8c0-.8.6-1.4,1.3-1.4s1.3.6,1.3,1.4v69.8c0,.8-.6,1.4-1.3,1.4s-1.3-.6-1.3-1.4V29.8Z"/><path class="cls-3" d="m122.3,40.8c0-.8.6-1.4,1.3-1.4s1.3.6,1.3,1.4v58.8c0,.8-.6,1.4-1.3,1.4s-1.3-.6-1.3-1.4v-58.8Z"/><path class="cls-3" d="m130.2,35.1c0-.8.6-1.4,1.3-1.4s1.3.6,1.3,1.4v64.5c0,.8-.6,1.4-1.3,1.4s-1.3-.6-1.3-1.4V35.1Z"/><path class="cls-3" d="m138.1,36c0-.8.6-1.4,1.3-1.4s1.3.6,1.3,1.4v63.6c0,.8-.6,1.4-1.3,1.4s-1.3-.6-1.3-1.4v-63.6Z"/><path class="cls-3" d="m146.1,49.6c0-.8.6-1.4,1.3-1.4s1.3.6,1.3,1.4v50c0,.8-.6,1.4-1.3,1.4s-1.3-.6-1.3-1.4v-50Z"/><path class="cls-3" d="m154,56.2c0-.8.6-1.4,1.3-1.4s1.3.6,1.3,1.4v43.4c0,.8-.6,1.4-1.3,1.4s-1.3-.6-1.3-1.4v-43.4Z"/><path class="cls-3" d="m161.8,51.8c0-.8.6-1.4,1.3-1.4s1.3.6,1.3,1.4v47.8c0,.8-.6,1.4-1.3,1.4s-1.3-.6-1.3-1.4v-47.8Z"/><path class="cls-3" d="m169.7,61.9c0-.8.6-1.4,1.3-1.4s1.3.6,1.3,1.4v37.7c0,.8-.6,1.4-1.3,1.4s-1.3-.6-1.3-1.4v-37.7Z"/><path class="cls-3" d="m177.6,74.7c0-.8.6-1.4,1.3-1.4s1.3.6,1.3,1.4v24.9c0,.8-.6,1.4-1.3,1.4s-1.3-.6-1.3-1.4v-24.9Z"/><ellipse class="cls-3" cx="186.7" cy="100.6" rx="1.3" ry=".4"/><text class="cls-4" transform="translate(22.3 122.5) rotate(-90)"><tspan x="0" y="0">12 mn</tspan></text><text class="cls-4" transform="translate(46 122.5) rotate(-90)"><tspan x="0" y="0">3am</tspan></text><text class="cls-4" transform="translate(69.7 122.5) rotate(-90)"><tspan x="0" y="0">6am</tspan></text><text class="cls-4" transform="translate(93.4 122.5) rotate(-90)"><tspan x="0" y="0">9am</tspan></text><text class="cls-4" transform="translate(117.1 122.5) rotate(-90)"><tspan class="cls-6" x="0" y="0">12</tspan><tspan class="cls-5" x="5.8" y="0" xml:space="preserve"> noon</tspan></text><text class="cls-4" transform="translate(140.8 122.5) rotate(-90)"><tspan x="0" y="0">3pm</tspan></text><text class="cls-4" transform="translate(164.5 122.5) rotate(-90)"><tspan x="0" y="0">6pm</tspan></text><text class="cls-4" transform="translate(188.2 122.5) rotate(-90)"><tspan x="0" y="0">9pm</tspan></text><line class="cls-1" x1="17" y1="101.2" x2="206.8" y2="101.2"/></svg>