<svg xmlns="http://www.w3.org/2000/svg" xmlns:xlink="http://www.w3.org/1999/xlink" width="177.517" height="177.517" viewBox="0 0 177.517 177.517">
  <defs>
    <clipPath id="clip-path">
      <rect id="Rectangle_58" data-name="Rectangle 58" width="177.517" height="177.517" fill="#e6616d"/>
    </clipPath>
  </defs>
  <g id="Group_271" data-name="Group 271" transform="translate(-308.212 -783.742)">
    <g id="Group_269" data-name="Group 269">
      <g id="Group_187" data-name="Group 187" transform="translate(308.212 783.742)">
        <g id="Group_186" data-name="Group 186" clip-path="url(#clip-path)">
          <path id="Path_4130" data-name="Path 4130" d="M88.758,0a88.758,88.758,0,1,0,88.758,88.758A88.758,88.758,0,0,0,88.758,0M54.177,52.256A12.68,12.68,0,1,1,41.5,64.936a12.68,12.68,0,0,1,12.679-12.68m75.9,80.234a5.076,5.076,0,0,1-6.94-1.853,39.7,39.7,0,0,0-68.756,0,5.079,5.079,0,0,1-8.793-5.086,49.857,49.857,0,0,1,86.341,0,5.079,5.079,0,0,1-1.853,6.94m-9.234-54.875a12.68,12.68,0,1,1,12.68-12.68,12.68,12.68,0,0,1-12.68,12.68" fill="#e6616d"/>
        </g>
      </g>
    </g>
  </g>
</svg>
