<svg xmlns="http://www.w3.org/2000/svg" xmlns:xlink="http://www.w3.org/1999/xlink" width="177.517" height="177.517" viewBox="0 0 177.517 177.517">
  <defs>
    <clipPath id="clip-path">
      <rect id="Rectangle_59" data-name="Rectangle 59" width="177.517" height="177.517" fill="#b9b5b5"/>
    </clipPath>
  </defs>
  <g id="Group_268" data-name="Group 268" transform="translate(-631.242 -783.742)">
    <g id="Group_189" data-name="Group 189" transform="translate(631.242 783.742)">
      <g id="Group_188" data-name="Group 188" clip-path="url(#clip-path)">
        <path id="Path_4131" data-name="Path 4131" d="M88.758,0a88.758,88.758,0,1,0,88.758,88.758A88.758,88.758,0,0,0,88.758,0M54.177,52.256A12.68,12.68,0,1,1,41.5,64.936a12.68,12.68,0,0,1,12.679-12.68m77.752,61.764a49.857,49.857,0,0,1-86.341,0,5.079,5.079,0,0,1,8.793-5.087,39.7,39.7,0,0,0,68.756,0,5.079,5.079,0,0,1,8.793,5.087m-11.087-36.4a12.68,12.68,0,1,1,12.68-12.68,12.68,12.68,0,0,1-12.68,12.68" fill="#b9b5b5"/>
      </g>
    </g>
    <rect id="Rectangle_79" data-name="Rectangle 79" width="110" height="45" transform="translate(665.273 879.585)" fill="#b9b5b5"/>
    <path id="Path_4608" data-name="Path 4608" d="M-15712.891-5278.549h95.363" transform="translate(16385.482 6180.635)" fill="none" stroke="#fff" stroke-linecap="round" stroke-width="11"/>
  </g>
</svg>
