<svg xmlns="http://www.w3.org/2000/svg" xmlns:xlink="http://www.w3.org/1999/xlink" width="177.517" height="177.517" viewBox="0 0 177.517 177.517">
  <defs>
    <clipPath id="clip-path">
      <rect id="Rectangle_60" data-name="Rectangle 60" width="177.517" height="177.517" fill="none"/>
    </clipPath>
  </defs>
  <g id="Group_266" data-name="Group 266" transform="translate(-954.273 -783.742)">
    <g id="Group_191" data-name="Group 191" transform="translate(954.273 783.742)">
      <g id="Group_190" data-name="Group 190" clip-path="url(#clip-path)">
        <path id="Path_4132" data-name="Path 4132" d="M211.481,268.054H138.274a.2.2,0,0,0-.163.075.162.162,0,0,0-.046.147,37.193,37.193,0,0,0,73.624,0,.162.162,0,0,0-.046-.147.2.2,0,0,0-.163-.075" transform="translate(-86.119 -167.204)" fill="#e6616d"/>
        <path id="Path_4133" data-name="Path 4133" d="M88.758,0a88.758,88.758,0,1,0,88.758,88.758A88.758,88.758,0,0,0,88.758,0m-49.8,64.337a5.079,5.079,0,0,1-1.853-6.94,20.454,20.454,0,0,1,35.421,0,5.079,5.079,0,1,1-8.794,5.086,10.3,10.3,0,0,0-17.834,0,5.079,5.079,0,0,1-6.94,1.853m96.664,38.169a47.352,47.352,0,0,1-93.738,0A10.364,10.364,0,0,1,52.155,90.692h73.207a10.363,10.363,0,0,1,10.265,11.814m-.494-38.169a5.076,5.076,0,0,1-6.94-1.853,10.3,10.3,0,0,0-17.834,0,5.079,5.079,0,1,1-8.793-5.086,20.454,20.454,0,0,1,35.42,0,5.079,5.079,0,0,1-1.853,6.94" fill="#e6616d"/>
      </g>
    </g>
  </g>
</svg>
