<svg xmlns="http://www.w3.org/2000/svg" xmlns:xlink="http://www.w3.org/1999/xlink" width="254.997" height="255.116" viewBox="0 0 254.997 255.116">
  <defs>
    <clipPath id="clip-path">
      <rect id="Rectangle_53" data-name="Rectangle 53" width="254.997" height="255.116" fill="none"/>
    </clipPath>
  </defs>
  <g id="Group_172" data-name="Group 172" transform="translate(8 -4.999)">
    <g id="Group_171" data-name="Group 171" transform="translate(-8 4.999)" clip-path="url(#clip-path)">
      <path id="Path_4122" data-name="Path 4122" d="M39.225,171.45c-17.6-12.05-27.532-28.259-30.813-48.565A65.971,65.971,0,0,1,18.1,75.7a43.344,43.344,0,0,0,6.852-23.567C25.159,23.7,48.423.138,76.319,0,105.8-.144,129.51,22.814,130.061,51.932c.085,4.495.631,8.98.961,13.432l20.229-1.789c0-11.528-.126-23.524.028-35.515.249-19.331,18.634-32.329,36.552-25.209,5.661,2.249,10.2,7.324,15.969,11.644,11.332-5.638,23.736-6.318,34.09,4.651,9.683,10.258,9.064,22.085,3.308,33.132,4.021,5.043,8.839,9.167,11.207,14.4,8.4,18.561-4.543,37.5-25.554,37.966-11.606.256-23.223.046-34.658.046-.726,6.343-1.035,12.12-2.109,17.751a40.125,40.125,0,0,1-15.007,24.536c-29.505,23.052-58.738,46.5-89.033,68.477-22.418,16.263-47.41,28.457-73.121,38.856-2.945,1.191-7.551,1.085-10.2-.458-4.062-2.366-2.884-6.832-.959-10.6Q18.209,211.069,34.7,178.91c1.229-2.392,2.787-4.616,4.524-7.46M166.81,133.872c10.5-10.555,12.7-25.525,6.092-37.922-6.468-12.14-20.86-19.3-34.156-15.97-5.442,1.363-11.7,3.689-15.242,7.664C109.993,102.8,97.437,118.8,83.748,135.435c4.285,3.837,8.1,7.037,11.663,10.5,3.653,3.558,4.482,7.763.423,11.4-3.692,3.312-7.757,2.483-11.086-.987C81.76,153.241,79,149.9,75.6,146.048a449.066,449.066,0,0,0-53.259,87.621c50.692-22.331,91.937-55.7,133.373-90.543-4.916-4.694-9.472-8.925-13.89-13.3-5.14-5.084-5.9-9.3-2.523-12.894,3.562-3.794,7.8-3.054,13.286,2.442,4.7,4.705,9.32,9.49,14.223,14.493M100.728,87.109c5.412-4.67,10.662-9.053,15.683-13.684.794-.732.868-2.612.744-3.911-.628-6.586-1.715-13.138-2.12-19.734C113.875,30.9,96.922,15.028,77.553,14.963c-19.52-.065-36.977,15.6-37.426,34.525A73.971,73.971,0,0,1,29.251,86.561c-14.326,24.127-5.175,58.718,18.666,71.775l9.759-13.732c-17.762-16.977-20.864-36.647-8.613-51.881C62.553,75.949,82,74.245,100.728,87.109m65.485-40.282c0,6.035-.3,12.094.157,18.094.171,2.227,1.741,4.673,3.341,6.4,4.756,5.142,9.8,10.02,14.83,14.907,1.36,1.322,3.028,3.27,4.583,3.3,13.106.237,26.23.408,39.325-.057,7.355-.261,11.749-5.528,11.524-12.164-.229-6.759-4.555-10.7-12.37-11.257-.622-.044-1.4.2-1.847-.092-2.626-1.712-6.336-3.041-7.39-5.486-.883-2.049.872-5.754,2.363-8.167,1.6-2.587,4.409-4.388,6.414-6.766,4.174-4.951,3.952-12.234-.3-16.483s-11.583-4.4-16.5-.252c-1.745,1.47-3.036,3.629-4.966,4.694-3.2,1.767-6.914,4.333-10.121,3.974-4.979-.557-5.154-5.485-5.342-9.86-.318-7.408-4.9-11.586-11.993-11.471-6.852.11-11.432,4.66-11.651,11.956-.187,6.238-.039,12.486-.05,18.73m-73.7,54.151c-6.125-6.9-13.446-8.961-21.365-6.214C62.683,97.7,57.033,104.6,56.732,113.137c-.29,8.232,3.281,14.518,10.622,19.094l25.157-31.253" transform="translate(0 0)" fill="#fff"/>
    </g>
  </g>
</svg>
