<svg id="Group_221" data-name="Group 221" xmlns="http://www.w3.org/2000/svg" xmlns:xlink="http://www.w3.org/1999/xlink" width="288.823" height="215.724" viewBox="0 0 288.823 215.724">
  <defs>
    <clipPath id="clip-path">
      <rect id="Rectangle_68" data-name="Rectangle 68" width="288.823" height="215.724" fill="none"/>
    </clipPath>
  </defs>
  <g id="Group_220" data-name="Group 220" clip-path="url(#clip-path)">
    <path id="Path_4160" data-name="Path 4160" d="M904.564,579.753a4.817,4.817,0,0,0-4.968.956l-6.943,6.369c-7.441-9.561-18.939-28.149-17.289-50.161a6.966,6.966,0,0,0-13.894-1.04c-2.06,27.485,12.041,49.651,20.866,60.664l-7.227,6.629a4.822,4.822,0,0,0,2.348,8.289l27.4,5.288a4.994,4.994,0,0,0,5.706-5.238l-2.912-27.75a4.808,4.808,0,0,0-3.087-4.007" transform="translate(-669.952 -411.825)" fill="#fff"/>
    <path id="Path_4161" data-name="Path 4161" d="M266.05,535.877a6.966,6.966,0,1,0-13.894,1.04c1.65,22.012-9.848,40.6-17.289,50.161l-6.943-6.368a4.821,4.821,0,0,0-8.055,3.051l-2.912,27.75a4.994,4.994,0,0,0,5.706,5.238l27.4-5.288a4.822,4.822,0,0,0,2.348-8.289l-7.227-6.629c8.825-11.013,22.926-33.18,20.866-60.664" transform="translate(-168.745 -411.825)" fill="#fff"/>
    <path id="Path_4162" data-name="Path 4162" d="M591.656,595.485h-9.646v-59.09a6.966,6.966,0,1,0-13.932,0v59.09h-9.651a4.821,4.821,0,0,0-3.873,7.694L571.166,625.6a4.819,4.819,0,0,0,7.746,0l16.617-22.418a4.823,4.823,0,0,0-3.873-7.7" transform="translate(-430.63 -411.825)" fill="#fff"/>
    <path id="Path_4163" data-name="Path 4163" d="M265.168,0H23.653A23.68,23.68,0,0,0,0,23.653V79.642a23.68,23.68,0,0,0,23.653,23.653H265.168a23.681,23.681,0,0,0,23.655-23.653V23.653A23.681,23.681,0,0,0,265.168,0M23.653,14.105H265.168a9.56,9.56,0,0,1,9.55,9.548V58.025H14.105V23.653a9.56,9.56,0,0,1,9.548-9.548M265.168,89.19H23.653a9.56,9.56,0,0,1-9.548-9.548V72.13H274.718v7.512a9.56,9.56,0,0,1-9.55,9.548" transform="translate(0 0)" fill="#fff"/>
    <path id="Path_4164" data-name="Path 4164" d="M1038.874,144.719h16.1a7.053,7.053,0,0,0,0-14.105h-16.1a7.053,7.053,0,0,0,0,14.105" transform="translate(-802.62 -101.6)" fill="#fff"/>
    <path id="Path_4165" data-name="Path 4165" d="M862.8,144.719h16.1a7.053,7.053,0,0,0,0-14.105H862.8a7.053,7.053,0,0,0,0,14.105" transform="translate(-665.655 -101.6)" fill="#fff"/>
  </g>
</svg>
