<svg id="Group_232" data-name="Group 232" xmlns="http://www.w3.org/2000/svg" xmlns:xlink="http://www.w3.org/1999/xlink" width="219.581" height="273.064" viewBox="0 0 219.581 273.064">
  <defs>
    <clipPath id="clip-path">
      <rect id="Rectangle_73" data-name="Rectangle 73" width="219.581" height="273.064" fill="none" stroke="#fff" stroke-width="4"/>
    </clipPath>
  </defs>
  <g id="Group_231" data-name="Group 231" clip-path="url(#clip-path)">
    <path id="Path_4180" data-name="Path 4180" d="M34,226.21a3.187,3.187,0,0,1-3.111-2.66c-.231-1.3-5.465-32.024,10.7-51.841,8.613-10.558,21.576-15.911,38.53-15.911H234.407a5.683,5.683,0,0,1,5.611,5.74v38.818a5.715,5.715,0,0,1-5.479,5.739l-124.81,3.016c-.171,0-.353,0-.534-.013-.418-.03-10.312-.68-15.672,4.432-2.388,2.277-3.548,5.365-3.548,9.441a3.167,3.167,0,1,1-6.332,0c0-5.889,1.872-10.66,5.563-14.18,7.047-6.72,18.168-6.315,20.406-6.156l124.075-3V162.276H80.124c-14.988,0-26.316,4.57-33.669,13.584-14.288,17.515-9.384,46.243-9.332,46.531a3.235,3.235,0,0,1-2.549,3.766,3.114,3.114,0,0,1-.57.053" transform="translate(-20.437 -105.334)" fill="#fff" stroke="#fff" stroke-width="4"/>
    <path id="Path_4181" data-name="Path 4181" d="M74.491,383.933H7.868a5.683,5.683,0,0,1-5.611-5.74V358.922a5.683,5.683,0,0,1,5.611-5.741H74.491a5.683,5.683,0,0,1,5.611,5.741v19.271a5.683,5.683,0,0,1-5.611,5.74m-65.9-6.478H73.77v-17.8H8.589Zm65.9-17.8h0Z" transform="translate(-1.542 -238.784)" fill="#fff" stroke="#fff" stroke-width="4"/>
    <path id="Path_4182" data-name="Path 4182" d="M368.175,84.488a3.2,3.2,0,0,1-3.166-3.239V47.222h-7.031l.041,34.023a3.2,3.2,0,0,1-3.162,3.243h0a3.2,3.2,0,0,1-3.166-3.235l-.042-34.762a5.771,5.771,0,0,1,1.641-4.064,5.511,5.511,0,0,1,3.97-1.684h8.474a5.683,5.683,0,0,1,5.611,5.741V81.249a3.2,3.2,0,0,1-3.166,3.239" transform="translate(-240.316 -27.547)" fill="#fff" stroke="#fff" stroke-width="4"/>
    <path id="Path_4183" data-name="Path 4183" d="M207.362,37.79a5.538,5.538,0,0,1-3.7-1.427,5.8,5.8,0,0,1-1.909-4.314V5.745a5.739,5.739,0,0,1,2.238-4.588A5.463,5.463,0,0,1,208.918.23l44.33,13.095a3.25,3.25,0,0,1,2.163,4.01,3.157,3.157,0,0,1-3.92,2.214L208.083,6.726V31.21l43.877-5.857a3.18,3.18,0,0,1,3.549,2.793,3.226,3.226,0,0,1-2.73,3.631l-44.692,5.965a5.468,5.468,0,0,1-.726.048" transform="translate(-137.878 0)" fill="#fff" stroke="#fff" stroke-width="4"/>
    <path id="Path_4184" data-name="Path 4184" d="M442.029,37.79a5.468,5.468,0,0,1-.726-.048l-44.692-5.965a3.225,3.225,0,0,1-2.73-3.631,3.182,3.182,0,0,1,3.549-2.793l43.877,5.857V6.726L397.9,19.549a3.156,3.156,0,0,1-3.92-2.214,3.25,3.25,0,0,1,2.163-4.01L440.472.23a5.464,5.464,0,0,1,4.929.927,5.738,5.738,0,0,1,2.238,4.588v26.3a5.8,5.8,0,0,1-1.909,4.314,5.538,5.538,0,0,1-3.7,1.427" transform="translate(-269.162 0)" fill="#fff" stroke="#fff" stroke-width="4"/>
    <path id="Path_4185" data-name="Path 4185" d="M39.5,587.974c-21.783,0-39.5-18.131-39.5-40.417,0-17.758,23.391-61.1,33.448-78.911a5.545,5.545,0,0,1,9.625-.152c10.805,17.835,35.936,61.24,35.936,79.063,0,22.286-17.722,40.417-39.5,40.417M38.327,472.959C22.744,500.675,6.332,534.5,6.332,547.558c0,18.714,14.881,33.938,33.173,33.938s33.172-15.225,33.172-33.938c0-13.034-17.623-46.871-34.351-74.6" transform="translate(0 -314.91)" fill="#fff" stroke="#fff" stroke-width="4"/>
    <path id="Path_4186" data-name="Path 4186" d="M177.314,686.291a3.1,3.1,0,0,1-1.5-.388,3.277,3.277,0,0,1-1.287-4.388c6.109-11.607-2.909-28.881-3-29.054a3.279,3.279,0,0,1,1.269-4.392,3.128,3.128,0,0,1,4.291,1.293c.443.831,10.758,20.514,3.016,35.225a3.157,3.157,0,0,1-2.79,1.7" transform="translate(-116.961 -437.889)" fill="#fff"/>
    <path id="Path_4187" data-name="Path 4187" d="M136.3,784.514a3.242,3.242,0,0,1-.183-6.473c3.848-.232,6.094-4.128,6.115-4.167a3.129,3.129,0,0,1,4.312-1.235,3.279,3.279,0,0,1,1.207,4.411c-.158.286-3.939,7.017-11.262,7.458-.064,0-.126.006-.189.006" transform="translate(-90.99 -522.096)" fill="#fff"/>
  </g>
</svg>
