<svg xmlns="http://www.w3.org/2000/svg" xmlns:xlink="http://www.w3.org/1999/xlink" width="235.206" height="235.206" viewBox="0 0 235.206 235.206">
  <defs>
    <clipPath id="clip-path">
      <rect id="Rectangle_78" data-name="Rectangle 78" width="235.206" height="235.205" transform="translate(0 0)" fill="none" stroke="#fff" stroke-width="2"/>
    </clipPath>
  </defs>
  <g id="Group_246" data-name="Group 246" transform="translate(0 -0.003)">
    <g id="Group_247" data-name="Group 247" transform="translate(0 0.003)" clip-path="url(#clip-path)">
      <path id="Path_4600" data-name="Path 4600" d="M701.2,131.471h0a14.468,14.468,0,0,1-10.284-4.265L636.833,73.1a16.086,16.086,0,0,1-4.564-11.187,15.755,15.755,0,0,1,4.459-11.241l15.041-15.044A53.565,53.565,0,0,1,717.9,28.385L745.243,1.039a3.541,3.541,0,0,1,5.007,0l12.618,12.618a3.54,3.54,0,0,1,0,5.007L735.41,46.123a52.828,52.828,0,0,1-7.732,65.415l-15.041,15.077a16.367,16.367,0,0,1-11.435,4.857M689.341,27.259a45.7,45.7,0,0,0-32.565,13.377L641.735,55.678a9.115,9.115,0,0,0,.105,12.4l54.085,54.085a7.322,7.322,0,0,0,5.276,2.156,9.2,9.2,0,0,0,6.428-2.748L722.67,106.53a45.868,45.868,0,0,0,5.3-58.837,3.541,3.541,0,0,1,.4-4.536l27-27L747.747,8.55,720.841,35.456a3.541,3.541,0,0,1-4.568.373,46.509,46.509,0,0,0-26.931-8.569" transform="translate(-528.7 -0.002)" fill="#fff" stroke="#fff" stroke-width="2"/>
      <path id="Path_4601" data-name="Path 4601" d="M16.159,698.615a3.541,3.541,0,0,1-2.5-1.037L1.037,684.96a3.541,3.541,0,0,1,0-5.007L28.994,652a53.561,53.561,0,0,1-8.066-32.474,52.979,52.979,0,0,1,15.309-33.653l15.041-15.041a14.311,14.311,0,0,1,10.2-4.175,16.566,16.566,0,0,1,11.6,4.889l2.36,2.36,16.97-16.97a9.452,9.452,0,0,1,6.743-2.744,11.518,11.518,0,0,1,8.057,3.416l.1.1a9.61,9.61,0,0,1-.079,14.049l-16.97,16.97,18.025,18.026,16.97-16.97a9.568,9.568,0,0,1,6.818-2.8,11.213,11.213,0,0,1,7.841,3.334l.1.1a9.816,9.816,0,0,1,.066,14.194l-16.97,16.97,4.058,4.058a14.6,14.6,0,0,1,.018,21.109l-15.041,15.113A52.947,52.947,0,0,1,74.55,677.6h0a52.561,52.561,0,0,1-27.818-8.017L18.663,697.614a3.508,3.508,0,0,1-2.5,1M8.548,682.457l7.611,7.611,27.606-27.606a3.539,3.539,0,0,1,4.536-.387,45.526,45.526,0,0,0,26.247,8.318h0a45.848,45.848,0,0,0,32.588-13.613l15.041-15.046a7.508,7.508,0,0,0-.018-11.1l-6.561-6.562a3.542,3.542,0,0,1,0-5.008l19.474-19.474a2.715,2.715,0,0,0-.065-4.178l-.1-.1a4.15,4.15,0,0,0-2.835-1.261,2.468,2.468,0,0,0-1.811.729L110.793,614.26a3.54,3.54,0,0,1-5.007,0L82.754,591.227a3.541,3.541,0,0,1,0-5.007l19.474-19.474a2.6,2.6,0,0,0,.077-4.037l-.1-.1a4.517,4.517,0,0,0-3.048-1.34,2.359,2.359,0,0,0-1.736.67L77.947,581.413a3.54,3.54,0,0,1-5.007,0l-4.863-4.863a9.438,9.438,0,0,0-6.594-2.815,7.21,7.21,0,0,0-5.2,2.1L41.244,590.876a46.523,46.523,0,0,0-4.808,59.5,3.541,3.541,0,0,1-.373,4.568Z" transform="translate(0 -463.41)" fill="#fff" stroke="#fff" stroke-width="2"/>
      <path id="Path_4602" data-name="Path 4602" d="M451.163,170.586a3.542,3.542,0,0,1-3.418-2.625l-4.655-17.374a3.541,3.541,0,1,1,6.84-1.833l4.655,17.374a3.543,3.543,0,0,1-3.422,4.458" transform="translate(-370.408 -122.193)" fill="#fff" stroke="#fff" stroke-width="2"/>
      <path id="Path_4603" data-name="Path 4603" d="M276.182,272.389a3.529,3.529,0,0,1-2.5-1.037l-12.818-12.818a3.541,3.541,0,0,1,5.007-5.007l12.818,12.818a3.541,3.541,0,0,1-2.5,6.044" transform="translate(-217.263 -211.131)" fill="#fff" stroke="#fff" stroke-width="2"/>
      <path id="Path_4604" data-name="Path 4604" d="M176.04,446.822a3.553,3.553,0,0,1-.919-.121l-17.374-4.656a3.541,3.541,0,1,1,1.833-6.84l17.374,4.655a3.541,3.541,0,0,1-.914,6.961" transform="translate(-129.712 -363.815)" fill="#fff" stroke="#fff" stroke-width="2"/>
      <path id="Path_4605" data-name="Path 4605" d="M935.978,1154.851a3.542,3.542,0,0,1-3.418-2.625l-4.655-17.375a3.541,3.541,0,1,1,6.84-1.833l4.655,17.374a3.543,3.543,0,0,1-3.422,4.458" transform="translate(-775.808 -945.23)" fill="#fff" stroke="#fff" stroke-width="2"/>
      <path id="Path_4606" data-name="Path 4606" d="M1077.053,1073.262a3.529,3.529,0,0,1-2.5-1.037l-12.818-12.818a3.541,3.541,0,0,1,5.007-5.007l12.818,12.818a3.541,3.541,0,0,1-2.5,6.044" transform="translate(-886.947 -880.817)" fill="#fff" stroke="#fff" stroke-width="2"/>
      <path id="Path_4607" data-name="Path 4607" d="M1158.9,930.826a3.555,3.555,0,0,1-.919-.121l-17.374-4.656a3.541,3.541,0,0,1,1.833-6.84l17.374,4.656a3.541,3.541,0,0,1-.914,6.961" transform="translate(-951.575 -768.538)" fill="#fff" stroke="#fff" stroke-width="2"/>
    </g>
  </g>
</svg>
