<?xml version="1.0" encoding="utf-8"?>
<!-- Generator: Adobe Illustrator 26.5.0, SVG Export Plug-In . SVG Version: 6.00 Build 0)  -->
<svg version="1.1" id="Layer_1" xmlns="http://www.w3.org/2000/svg" xmlns:xlink="http://www.w3.org/1999/xlink" x="0px" y="0px"
	 viewBox="0 0 136.7 115.3" style="enable-background:new 0 0 136.7 115.3;" xml:space="preserve">
<style type="text/css">
	.st0{fill:#fff;}
</style>
<g id="Group_205" transform="translate(0 -0.001)">
	<g>
		<path id="Path_4152_00000171685819044767604740000014089011812696628394_" class="st0" d="M134.2,49.4l-23.2-18V10.7
			c0-1.2-1-2.1-2.1-2.1H96.1c-1.2,0-2.1,1-2.1,2.1v7.5L72.3,1.3c-2.3-1.8-5.5-1.8-7.9,0L2.5,49.4c-2.8,2.2-3.3,6.2-1.1,9
			c2.2,2.8,6.2,3.3,9,1.1L65.1,17c0.9-0.8,2-1.3,3.2-1.4c1.2,0.1,2.3,0.6,3.2,1.4l54.8,42.5c2.8,2.2,6.8,1.7,9-1.1
			C137.5,55.6,137,51.6,134.2,49.4"/>
		<path id="Path_4153_00000145761276996386440090000012514887366148367240_" class="st0" d="M117.9,60.9L70,23.7
			c-1-0.7-2.4-0.7-3.4,0L18.8,60.9c-1,0.9-1.6,2.1-1.7,3.4v48.9c0,1.2,1,2.1,2.1,2.1h34.2c1.2,0,2.1-1,2.1-2.1V79
			c0-1.2,1-2.1,2.1-2.1H79c1.2,0,2.1,1,2.1,2.1v34.2c0,1.2,1,2.1,2.1,2.1h34.2c1.2,0,2.1-1,2.1-2.1V64.3
			C119.5,63,118.9,61.8,117.9,60.9"/>
	</g>
</g>
</svg>
