<svg xmlns="http://www.w3.org/2000/svg" xmlns:xlink="http://www.w3.org/1999/xlink" width="121.205" height="115.321" viewBox="0 0 121.205 115.321">
  <defs>
    <clipPath id="clip-path">
      <rect id="Rectangle_55" data-name="Rectangle 55" width="121.205" height="115.321" fill="#ee7981"/>
    </clipPath>
  </defs>
  <g id="Group_243" data-name="Group 243" transform="translate(-513.795 -2798.05)">
    <g id="Group_178" data-name="Group 178" transform="translate(517.795 2573.05)">
      <g id="Group_177" data-name="Group 177" transform="translate(-4 225)" clip-path="url(#clip-path)">
        <path id="Path_4137" data-name="Path 4137" d="M228.687,27.72A13.9,13.9,0,1,0,216.373,12.4,13.9,13.9,0,0,0,228.687,27.72" transform="translate(-183.332 0)" fill="#ee7981"/>
        <path id="Path_4138" data-name="Path 4138" d="M46,264.584H25.973a9.684,9.684,0,0,1-9.548-8.006L9.575,217.85a4.824,4.824,0,0,0-9.5,1.683l6.857,38.728a19.312,19.312,0,0,0,19.042,15.968H42.6v17.548a4.823,4.823,0,0,0,9.645,0V270.829A6.253,6.253,0,0,0,46,264.584" transform="translate(0 -181.278)" fill="#ee7981"/>
        <path id="Path_4139" data-name="Path 4139" d="M188.375,231.248H175.729l3.29-15.042,8.92,4.3a6.419,6.419,0,0,0,2.791.637c.1,0,.191,0,.286-.006l13.463-.6a6.43,6.43,0,0,0-.572-12.848l-11.843.531s-13.475-7.031-15.139-7.422c-1.871-.44-9.519-2.105-9.519-2.105a10.264,10.264,0,0,0-12.232,7.936L149.56,233.6a10.022,10.022,0,0,0,9.814,12.063h22.32a2.606,2.606,0,0,1,2.606,2.605v27.8a7.207,7.207,0,1,0,14.414,0V241.59a10.339,10.339,0,0,0-10.339-10.341" transform="translate(-126.591 -168.215)" fill="#ee7981"/>
      </g>
    </g>
    <g id="Group_242" data-name="Group 242">
      <path id="Path_4597" data-name="Path 4597" d="M631.994,187.3H642.25a.81.81,0,0,0,0-1.62H632.8V173.068a.81.81,0,0,0-1.62,0v13.418a.81.81,0,0,0,.81.81" transform="translate(-18.387 2632.299)" fill="#ee7981"/>
      <path id="Path_4598" data-name="Path 4598" d="M626.079,171.595H615.823a1.281,1.281,0,0,1-1.279-1.279V156.9a1.279,1.279,0,0,1,2.559,0v12.139h8.977a1.279,1.279,0,0,1,0,2.559m-10.256-15.038a.341.341,0,0,0-.341.341v13.418a.341.341,0,0,0,.341.341h10.256a.341.341,0,0,0,0-.682h-9.915V156.9a.341.341,0,0,0-.341-.341" transform="translate(-2.216 2648.47)" fill="#ee7981"/>
      <path id="Path_4599" data-name="Path 4599" d="M18.61,37.225A18.615,18.615,0,0,1,11.366,1.467,18.615,18.615,0,0,1,25.855,35.762a18.5,18.5,0,0,1-7.244,1.463m0-35.344A16.734,16.734,0,1,0,35.344,18.614,16.753,16.753,0,0,0,18.61,1.881" transform="translate(595 2799.696)" fill="#ee7981"/>
    </g>
  </g>
</svg>
