<svg xmlns="http://www.w3.org/2000/svg" xmlns:xlink="http://www.w3.org/1999/xlink" width="133.205" height="115.321" viewBox="0 0 133.205 115.321">
  <defs>
    <clipPath id="clip-path">
      <rect id="Rectangle_55" data-name="Rectangle 55" width="133.205" height="115.321" fill="#fff"/>
    </clipPath>
    <clipPath id="clip-path-2">
      <rect id="Rectangle_77" data-name="Rectangle 77" width="35.309" height="37.92" transform="translate(0 0)" fill="none"/>
    </clipPath>
  </defs>
  <g id="Group_249" data-name="Group 249" transform="translate(-788.609 -2798.05)">
    <g id="Group_177" data-name="Group 177" transform="translate(788.609 2798.05)" clip-path="url(#clip-path)">
      <path id="Path_4137" data-name="Path 4137" d="M228.687,27.72A13.9,13.9,0,1,0,216.373,12.4,13.9,13.9,0,0,0,228.687,27.72" transform="translate(-183.332 0)" fill="#fff"/>
      <path id="Path_4138" data-name="Path 4138" d="M46,264.584H25.973a9.684,9.684,0,0,1-9.548-8.006L9.575,217.85a4.824,4.824,0,0,0-9.5,1.683l6.857,38.728a19.312,19.312,0,0,0,19.042,15.968H42.6v17.548a4.823,4.823,0,0,0,9.645,0V270.829A6.253,6.253,0,0,0,46,264.584" transform="translate(0 -181.278)" fill="#fff"/>
      <path id="Path_4139" data-name="Path 4139" d="M188.375,231.248H175.729l3.29-15.042,8.92,4.3a6.419,6.419,0,0,0,2.791.637c.1,0,.191,0,.286-.006l13.463-.6a6.43,6.43,0,0,0-.572-12.848l-11.843.531s-13.475-7.031-15.139-7.422c-1.871-.44-9.519-2.105-9.519-2.105a10.264,10.264,0,0,0-12.232,7.936L149.56,233.6a10.022,10.022,0,0,0,9.814,12.063h22.32a2.606,2.606,0,0,1,2.606,2.605v27.8a7.207,7.207,0,1,0,14.414,0V241.59a10.339,10.339,0,0,0-10.339-10.341" transform="translate(-126.591 -168.215)" fill="#fff"/>
      <path id="Path_4143" data-name="Path 4143" d="M549.625,379.005H505.709a4.823,4.823,0,0,0,0,9.645h17.136v43.1a4.822,4.822,0,1,0,9.645,0v-43.1h17.135a4.823,4.823,0,0,0,0-9.645" transform="translate(-424.563 -321.253)" fill="#fff"/>
    </g>
    <g id="Group_241" data-name="Group 241" transform="translate(882 2799.055)">
      <g id="Group_240" data-name="Group 240" transform="translate(0 -0.005)" clip-path="url(#clip-path-2)">
        <path id="Path_4585" data-name="Path 4585" d="M17.65,37.906c-4.968,0-9.936-.014-14.9.009A2.762,2.762,0,0,1,0,35.156Q.014,21.046,0,6.937A2.7,2.7,0,0,1,2.239,4.215a2.686,2.686,0,0,1,.527-.029q2.006,0,4.012,0c.294,0,.3,0,.3-.293,0-.772,0-1.543,0-2.315A1.474,1.474,0,0,1,7.62.311,1.35,1.35,0,0,1,9.113.149,1.339,1.339,0,0,1,9.9,1.4c.013.838.01,1.676,0,2.513,0,.215.067.272.277.272q7.165-.008,14.33,0c.231,0,.282-.075.279-.291-.011-.823-.006-1.646,0-2.469a1.4,1.4,0,1,1,2.806-.009c0,.823,0,1.646,0,2.469,0,.294,0,.295.287.295q2.348,0,4.7,0a2.676,2.676,0,0,1,2.709,2.266,2.411,2.411,0,0,1,.025.417q0,14.176,0,28.352a2.67,2.67,0,0,1-2.689,2.686q-7.485,0-14.969,0m.014-23.639H2.452c-.3,0-.3,0-.3.283q0,9.678,0,19.356a2.362,2.362,0,0,0,.075.632A1.84,1.84,0,0,0,4.1,35.889H31.523a1.522,1.522,0,0,0,1.64-1.638q0-9.821,0-19.642c0-.341,0-.341-.353-.341H17.664m7.12-8.173a2.078,2.078,0,0,0-.56,2.338,2.114,2.114,0,0,0,4.02-.308,2,2,0,0,0-.653-2.006c0,.51,0,1.008,0,1.505a1.4,1.4,0,1,1-2.806,0c0-.5,0-1,0-1.532M7.1,6.1A2,2,0,0,0,6.416,8a2.111,2.111,0,1,0,3.656-1.758c-.036-.04-.063-.119-.134-.084-.051.025-.03.093-.03.142,0,.448,0,.9,0,1.344A1.407,1.407,0,0,1,8.477,9.067,1.377,1.377,0,0,1,7.1,7.652c0-.506,0-1.012,0-1.552" transform="translate(0 0.005)" fill="#fff"/>
        <path id="Path_4586" data-name="Path 4586" d="M1035.743,1383.354c.426,0,.852,0,1.279,0a.787.787,0,0,1,.854.811q.025,1.311,0,2.623a.794.794,0,0,1-.869.822q-1.267,0-2.535,0a.771.771,0,0,1-.857-.782q-.041-1.354,0-2.711a.769.769,0,0,1,.851-.764c.426,0,.852,0,1.279,0" transform="translate(-1021.237 -1366.814)" fill="#fff"/>
        <path id="Path_4587" data-name="Path 4587" d="M1035.819,2456.329c.426,0,.852,0,1.278,0a.77.77,0,0,1,.848.789c.021.888.019,1.778,0,2.667a.782.782,0,0,1-.827.8c-.867.011-1.734.01-2.6,0a.765.765,0,0,1-.829-.766q-.044-1.365,0-2.732a.752.752,0,0,1,.831-.755c.433,0,.867,0,1.3,0" transform="translate(-1021.309 -2426.961)" fill="#fff"/>
        <path id="Path_4588" data-name="Path 4588" d="M1035.672,1911.891c-.426,0-.852,0-1.278,0a.767.767,0,0,1-.844-.79q-.032-1.321,0-2.644a.8.8,0,0,1,.875-.821q1.256-.008,2.512,0a.82.82,0,0,1,.884.883q.009,1.245,0,2.49a.8.8,0,0,1-.892.882c-.419,0-.837,0-1.256,0" transform="translate(-1021.178 -1884.826)" fill="#fff"/>
        <path id="Path_4589" data-name="Path 4589" d="M2091.4,1912.733c0-.441,0-.882,0-1.322a.77.77,0,0,1,.787-.8q1.344-.011,2.689,0a.767.767,0,0,1,.778.769q.016,1.355,0,2.711a.778.778,0,0,1-.779.771q-1.344.013-2.688,0a.779.779,0,0,1-.787-.806c0-.015,0-.029,0-.044v-1.278" transform="translate(-2066.391 -1887.761)" fill="#fff"/>
        <path id="Path_4590" data-name="Path 4590" d="M2095.6,2458.422c0,.441,0,.882,0,1.322a.761.761,0,0,1-.783.8q-1.333.013-2.666,0a.782.782,0,0,1-.8-.8q-.019-1.333,0-2.666a.784.784,0,0,1,.829-.79q1.311-.005,2.622,0a.763.763,0,0,1,.8.806c0,.441,0,.881,0,1.322" transform="translate(-2066.335 -2426.924)" fill="#fff"/>
        <path id="Path_4591" data-name="Path 4591" d="M510.053,1912.817c0,.441,0,.881,0,1.322a.758.758,0,0,1-.772.791q-1.344.015-2.688,0a.777.777,0,0,1-.791-.785c-.014-.9-.015-1.792,0-2.688a.779.779,0,0,1,.817-.779q1.322-.006,2.644,0a.76.76,0,0,1,.789.795c0,.448,0,.9,0,1.344" transform="translate(-499.743 -1887.831)" fill="#fff"/>
        <path id="Path_4592" data-name="Path 4592" d="M1563.744,1385.395c0-.441,0-.881,0-1.322a.764.764,0,0,1,.806-.8q1.311-.006,2.622,0a.785.785,0,0,1,.824.8q.019,1.333,0,2.666a.782.782,0,0,1-.807.792q-1.322.012-2.644,0a.775.775,0,0,1-.8-.81c0-.015,0-.029,0-.044q0-.639,0-1.278" transform="translate(-1545.047 -1366.732)" fill="#fff"/>
        <path id="Path_4593" data-name="Path 4593" d="M2091.4,1385.356c0-.441,0-.881,0-1.322a.773.773,0,0,1,.8-.807q1.322-.008,2.644,0a.779.779,0,0,1,.807.81q.01,1.311,0,2.622a.8.8,0,0,1-.822.822q-1.311.008-2.622,0a.782.782,0,0,1-.813-.825c0-.22,0-.441,0-.661s0-.426,0-.639" transform="translate(-2066.393 -1366.686)" fill="#fff"/>
        <path id="Path_4594" data-name="Path 4594" d="M1563.744,1912.785c0-.433,0-.867,0-1.3a.764.764,0,0,1,.8-.81q1.322-.007,2.644,0a.78.78,0,0,1,.812.785q.021,1.344,0,2.688a.781.781,0,0,1-.818.781q-1.322.01-2.644,0a.768.768,0,0,1-.789-.8c0-.448,0-.9,0-1.344" transform="translate(-1545.047 -1887.828)" fill="#fff"/>
        <path id="Path_4595" data-name="Path 4595" d="M508.1,2456.32c.433,0,.867,0,1.3,0a.755.755,0,0,1,.815.809q0,1.311,0,2.622a.772.772,0,0,1-.792.821q-1.321.021-2.643,0a.8.8,0,0,1-.82-.851q-.009-1.278,0-2.555a.8.8,0,0,1,.863-.845c.426,0,.852,0,1.278,0" transform="translate(-499.909 -2426.952)" fill="#fff"/>
        <path id="Path_4596" data-name="Path 4596" d="M1563.742,2458.4c0-.441,0-.881,0-1.322a.757.757,0,0,1,.8-.8q1.31-.006,2.621,0a.78.78,0,0,1,.827.788c.014.888.012,1.777,0,2.665a.782.782,0,0,1-.8.8q-1.332.023-2.665,0a.779.779,0,0,1-.785-.829c0-.433,0-.866,0-1.3" transform="translate(-1545.045 -2426.906)" fill="#fff"/>
      </g>
    </g>
  </g>
</svg>
