<?xml version="1.0" encoding="utf-8"?>
<!-- Generator: Adobe Illustrator 26.5.0, SVG Export Plug-In . SVG Version: 6.00 Build 0)  -->
<svg version="1.1" id="Layer_1" xmlns="http://www.w3.org/2000/svg" xmlns:xlink="http://www.w3.org/1999/xlink" x="0px" y="0px"
	 viewBox="0 0 121.2 115.3" style="enable-background:new 0 0 121.2 115.3;" xml:space="preserve">
<style type="text/css">
	.st0{fill:#EE7981;}
</style>
<g id="Group_201" transform="translate(-559.211 0)">
	<path id="Path_4143" class="st0" d="M679.7,44.4c-0.7-1.1-1.8-1.9-3.1-2.1c-1.8-0.3-3.5,0.4-4.6,1.9L663.5,56
		c0.2,0.3,0.5,0.6,0.7,0.9c2.2,3.2,1.9,7.4-0.6,10.3l-0.6,0.7c-3.4,3.9-7.1,7.4-11.1,10.7l-3.3,2.6c-0.9,0.8-2.3,0.7-3.1-0.3
		c-0.8-0.9-0.7-2.3,0.3-3.1c0,0,0,0,0.1-0.1l3.3-2.6c3.8-3.1,7.3-6.5,10.5-10.2l0.6-0.7c1.5-1.7,1.3-4.2-0.4-5.7
		c-1.4-1.2-3.4-1.3-5-0.3L636.8,71c-2,1.4-3.5,3.5-4.3,5.9l-6.7,21.8h24l15.9-9.7c2.8-1.7,4.8-4.4,5.7-7.6l8.9-33.2
		C680.6,46.8,680.4,45.5,679.7,44.4"/>
	<path id="Path_4144" class="st0" d="M625.2,113.3c0,1.1,0.9,2.1,2.1,2.1h18.8c1.1,0,2.1-0.9,2.1-2.1v-10.2h-22.9V113.3z"/>
	<path id="Path_4145" class="st0" d="M591.4,113.3c0,1.1,0.9,2.1,2.1,2.1h18.8c1.1,0,2.1-0.9,2.1-2.1v-10.2h-22.9V113.3z"/>
	<path id="Path_4146" class="st0" d="M607.1,76.8c-0.7-2.4-2.2-4.4-4.3-5.9l-18.1-12.7c-1.8-1.3-4.3-0.8-5.6,1c-1.1,1.5-1,3.6,0.3,5
		l0.6,0.7c3.2,3.7,6.7,7.1,10.5,10.2l3.3,2.7c1,0.8,1.1,2.2,0.3,3.1c-0.8,1-2.2,1.1-3.1,0.3c0,0,0,0,0,0l-3.3-2.6
		c-4-3.2-7.7-6.8-11.1-10.7l-0.6-0.7c-2.5-2.9-2.8-7.1-0.6-10.3c0.2-0.3,0.4-0.6,0.7-0.9l-8.5-11.8c-0.9-1.2-2.3-1.9-3.8-1.9
		c-1.6,0-3.1,0.8-3.9,2.1c-0.7,1.1-0.9,2.5-0.6,3.7l8.9,33.2c0.8,3.2,2.9,5.9,5.7,7.6l15.9,9.7h24L607.1,76.8z"/>
	<path id="Path_4147" class="st0" d="M645.9,0h-52.2c-5.8,0-10.5,4.7-10.5,10.5V35c0,5.8,4.7,10.5,10.5,10.5h15.9l8,14.3
		c0.7,1.2,2.2,1.7,3.5,1c0.4-0.2,0.7-0.6,1-1l8-14.3h15.9c5.8,0,10.5-4.7,10.5-10.5c0,0,0,0,0,0V10.5C656.4,4.7,651.7,0,645.9,0
		C645.9,0,645.9,0,645.9,0 M601,29.1c-3.5,0-6.4-2.8-6.4-6.4s2.8-6.4,6.4-6.4c3.5,0,6.4,2.8,6.4,6.4c0,0,0,0,0,0
		C607.4,26.2,604.5,29.1,601,29.1 M619.8,29.1c-3.5,0-6.4-2.8-6.4-6.4s2.8-6.4,6.4-6.4c3.5,0,6.4,2.8,6.4,6.4c0,0,0,0,0,0
		C626.2,26.2,623.3,29.1,619.8,29.1 M638.6,29.1c-3.5,0-6.4-2.8-6.4-6.4s2.8-6.4,6.4-6.4c3.5,0,6.4,2.8,6.4,6.4c0,0,0,0,0,0
		C645,26.2,642.1,29.1,638.6,29.1"/>
</g>
</svg>
