<svg xmlns="http://www.w3.org/2000/svg" xmlns:xlink="http://www.w3.org/1999/xlink" width="121.18" height="115.321" viewBox="0 0 121.18 115.321">
  <defs>
    <clipPath id="clip-path">
      <rect id="Rectangle_64" data-name="Rectangle 64" width="121.18" height="115.321" transform="translate(0 0)" fill="#fff"/>
    </clipPath>
  </defs>
  <g id="Group_214" data-name="Group 214" transform="translate(559.211)">
    <g id="Group_201" data-name="Group 201" transform="translate(-559.211 0)" clip-path="url(#clip-path)">
      <path id="Path_4143" data-name="Path 4143" d="M646.834,378.181a4.609,4.609,0,0,0-3.144-2.074,4.661,4.661,0,0,0-4.568,1.881L630.66,389.81a9.294,9.294,0,0,1,.663.852,8.456,8.456,0,0,1-.609,10.312l-.587.676a90.478,90.478,0,0,1-11.064,10.694l-3.255,2.647a2.217,2.217,0,1,1-2.8-3.437l3.255-2.65a85.63,85.63,0,0,0,10.521-10.167l.587-.674a4.014,4.014,0,0,0-5.332-5.925L603.974,404.8a11.27,11.27,0,0,0-4.277,5.874L592.958,432.5h23.974l15.893-9.736a12.745,12.745,0,0,0,5.685-7.612l8.9-33.239a4.6,4.6,0,0,0-.581-3.728" transform="translate(-526.399 -333.829)" fill="#fff"/>
      <path id="Path_4144" data-name="Path 4144" d="M588.093,928.673a2.07,2.07,0,0,0,2.067,2.069h18.8a2.072,2.072,0,0,0,2.068-2.069v-10.15H588.093Z" transform="translate(-522.081 -815.421)" fill="#fff"/>
      <path id="Path_4145" data-name="Path 4145" d="M287.163,928.673a2.072,2.072,0,0,0,2.068,2.069h18.8a2.072,2.072,0,0,0,2.068-2.069v-10.15H287.163Z" transform="translate(-254.929 -815.421)" fill="#fff"/>
      <path id="Path_4146" data-name="Path 4146" d="M47.883,410.708a11.259,11.259,0,0,0-4.28-5.874L25.541,392.171A4.015,4.015,0,0,0,20.21,398.1l.587.674a85.56,85.56,0,0,0,10.518,10.164l3.258,2.653a2.217,2.217,0,1,1-2.8,3.438l-3.258-2.65a90.193,90.193,0,0,1-11.061-10.691l-.587-.675a8.451,8.451,0,0,1-.609-10.313,8.787,8.787,0,0,1,.663-.852L8.454,378.022a4.694,4.694,0,0,0-3.8-1.946,4.671,4.671,0,0,0-3.914,2.139,4.607,4.607,0,0,0-.581,3.728l8.9,33.239a12.758,12.758,0,0,0,5.685,7.612l15.893,9.736H54.623Z" transform="translate(0.001 -333.862)" fill="#fff"/>
      <path id="Path_4147" data-name="Path 4147" d="M276.514,0H224.3a10.48,10.48,0,0,0-10.48,10.48V34.97A10.482,10.482,0,0,0,224.3,45.451h15.865l8.014,14.283a2.555,2.555,0,0,0,4.456,0l8.014-14.283h15.867A10.48,10.48,0,0,0,287,34.971V10.486A10.482,10.482,0,0,0,276.514,0M231.609,29.087a6.359,6.359,0,1,1,6.358-6.359,6.36,6.36,0,0,1-6.358,6.359m18.8,0a6.359,6.359,0,1,1,6.358-6.359,6.359,6.359,0,0,1-6.358,6.359m18.8,0a6.359,6.359,0,1,1,6.358-6.359,6.36,6.36,0,0,1-6.358,6.359" transform="translate(-189.816 -0.004)" fill="#fff"/>
    </g>
  </g>
</svg>
